<svg version="1.2" xmlns="http://www.w3.org/2000/svg" viewBox="0 0 1500 1000" width="1500" height="1000">
	<title>2676790-ai</title>
	<style>
		.s0 { fill: #fdd0b4 } 
		.s1 { fill: #00c69c } 
		.s2 { fill: #00a37c } 
		.s3 { fill: #0a5265 } 
		.s4 { fill: #ff7769 } 
		.s5 { fill: #fefce4 } 
		.s6 { fill: #d8cab2 } 
		.s7 { fill: none;stroke: #0a5265;stroke-linecap: round;stroke-linejoin: round;stroke-width: 4 } 
		.s8 { fill: #ffc48a } 
		.s9 { fill: #e9760b } 
		.s10 { mix-blend-mode: multiply;fill: #d8cab2 } 
		.s11 { fill: #00a6ba } 
		.s12 { fill: #1dc9d6 } 
		.s13 { fill: none;stroke: #fefce4;stroke-miterlimit:10 } 
		.s14 { fill: none;stroke: #0a5265;stroke-linecap: round;stroke-linejoin: round;stroke-width: 6 } 
		.s15 { fill: #efe5d0 } 
		.s16 { fill: none;stroke: #ff7769;stroke-linecap: round;stroke-miterlimit:10;stroke-width: 2 } 
		.s17 { fill: #1b5156 } 
		.s18 { fill: #633500 } 
		.s19 { fill: none;stroke: #fefce4;stroke-linecap: round;stroke-linejoin: round } 
		.s20 { fill: none;stroke: #fe4843;stroke-linecap: round;stroke-miterlimit:10;stroke-width: 2 } 
		.s21 { fill: #0c7aaa } 
		.s22 { fill: none;stroke: #00a37c;stroke-miterlimit:10 } 
		.s23 { fill: none;stroke: #00c69c;stroke-miterlimit:10 } 
	</style>
	<g id="BACKGROUND">
	</g>
	<path id="Shape 1" class="s0" d="m785.1-3.5c245.4 85.8 551.2 449.3 684.2 813.2 133 363.9-754.6 53.5-887.6-310.4q-11.8-32.5-21.4-63.5c-100.1-326.1-1155.3 134.3 126.3 4.2 1281.6-130-132.3-524.2 98.5-443.5z"/>
	<g id="OBJECTS">
		<g id="&lt;Group&gt;">
			<g id="&lt;Group&gt;">
				<path id="&lt;Compound Path&gt;" class="s1" d="m704 667.5c0-41.3-31.9-75.2-72.5-78.3 34.5-6.2 60.7-36.4 60.7-72.7 0-39.1-30.3-71-68.7-73.7 1.3-2.9 2-6.2 2-9.6 0-13.2-10.8-23.9-24-23.9-12.1 0-22 8.9-23.7 20.5-3.6-1.2-7.4-1.8-11.4-1.8-20.2 0-36.6 16.4-36.6 36.6 0 13.2 7 24.9 17.6 31.3-1.9 6.5-3 13.4-3 20.6q0.1 2.8 0.3 5.5c-29.6 2.6-52.8 27.4-52.8 57.7 0 10.1 2.5 19.6 7.1 27.8-20.7 12.1-34.5 34.4-34.5 60 0 31.2 20.6 57.6 49 66.4q-0.9 3.2-1.3 6.6c-20 4.5-34.9 22.3-34.9 43.7 0 24.7 20 44.7 44.7 44.7q1.8 0 3.6-0.2 0.2 1.4 0.6 2.8h113c12.9-7.1 21.7-20.8 21.7-36.6 0-16.3-9.4-30.4-23-37.3q0.6-4.1 0.6-8.4 0-2.1-0.2-4.2c37.3-6.2 65.7-38.5 65.7-77.5z"/>
				<path id="&lt;Path&gt;" class="s2" d="m603.5 419.5c-1.3 0-2.6 1.2-3.1 2.3-0.4 0.9-0.4 2.3 0.9 2.3 1.3 0 2.6-1.1 3.1-2.3 0.5-0.9 0.4-2.3-0.9-2.3z"/>
				<path id="&lt;Path&gt;" class="s2" d="m599 415.6c-0.5 0.4-0.9 0.9-1.1 1.4-0.1 0.4 0 1 0.4 1.1q0.1 0 0.2 0c1.2 0.3 2.2-0.9 2.3-1.9q0-0.1 0-0.2c0.1-1.1-1.3-0.7-1.8-0.4z"/>
				<path id="&lt;Path&gt;" class="s2" d="m598.5 425.7q-0.2-0.4-0.5-0.8c-0.4-0.5-1.3-0.3-1.8 0q-0.6 0.2-1.1 0.7 0 0 0 0.1-0.2 0.2-0.4 0.4 0 0 0 0-0.1 0.1-0.1 0.1-0.1 0.2-0.2 0.4-0.2 0.3-0.3 0.6c-0.1 0.6-0.1 1 0.1 1.6 0.4 1.2 2 0.5 2.7 0 0.9-0.6 2-1.9 1.6-3.1z"/>
				<g id="&lt;Group&gt;">
					<path id="&lt;Path&gt;" class="s2" d="m602.1 429.9q0 0 0-0.1 0 0.1 0 0.1z"/>
					<path id="&lt;Path&gt;" class="s2" d="m604.1 428.9c0.1 0 0 0 0 0-0.7-0.6-1.7 0.4-1.9 0.9-0.1 0-0.1 0.1-0.1 0.1-0.3 0.3-0.5 0.9-0.3 1.3 0.2 0.6 0.9 0.5 1.3 0.3 0.6-0.3 1-0.7 1.3-1.3 0.1-0.3 0.3-1.2-0.3-1.3z"/>
				</g>
				<path id="&lt;Path&gt;" class="s2" d="m593.4 419.2c-0.5-1.3-2.8 0.8-3.2 1.2-0.8 0.6-1.1 2.3 0.4 2 0.9-0.2 1.6-0.6 2.2-1.4 0.3-0.4 0.8-1.2 0.6-1.8z"/>
				<path id="&lt;Path&gt;" class="s2" d="m542.6 448.5c-0.1-0.4-0.7-0.4-1-0.5-0.5 0-1 0.3-1.3 0.6-0.3 0.3-0.9 1.1-0.6 1.6q0.1 0.2 0.2 0.3c0.1 0.1 0.5 0.5 0.2 0.2q0 0 0 0 0.1 0.1 0.4 0.1 0.1 0.1 0.1 0.1c1 0.1 2.2-1.4 2-2.4z"/>
				<path id="&lt;Path&gt;" class="s2" d="m545.5 443.2c-0.9 0-2.3 2.1-1 2.1 1 0 2.3-2.1 1-2.1z"/>
				<path id="&lt;Path&gt;" class="s2" d="m553.1 445.1c-0.2-0.5-0.7-0.4-1.1-0.3-1-0.1-2.4 1.6-2.1 2.5 0.3 0.6 1 0.5 1.4 0.3q0.6-0.3 1-0.9c0.4-0.3 1-1 0.8-1.6z"/>
				<path id="&lt;Path&gt;" class="s2" d="m559.5 437.3q0 0-0.1 0c-0.6 0.3-1.3 1-1.3 1.7 0.1 0.8 0.8 0.8 1.3 0.5q0.1 0 0.2 0c0.6-0.3 1.2-1 1.2-1.7 0-0.8-0.8-0.8-1.3-0.6z"/>
				<path id="&lt;Path&gt;" class="s2" d="m548.4 461.2q0 0 0 0c0-0.5-0.3-1-0.9-1-0.9 0-1.8 0.7-2.3 1.4-0.4 0.6-1 1.5-0.7 2.4 0.4 1.1 1.9 0.4 2.6 0 0.7-0.6 1.7-1.8 1.3-2.8z"/>
				<g id="&lt;Group&gt;">
					<path id="&lt;Path&gt;" class="s2" d="m555.9 456.9c0.1-0.2 0.2-0.3 0 0z"/>
					<path id="&lt;Path&gt;" class="s2" d="m556.6 456.4c-0.3 0.1-0.5 0.3-0.7 0.5q0 0-0.1 0.1c-0.1 0.1-0.2 0.4-0.2 0.6 0 0.6 0.2 1.1 0.9 0.9 0.7-0.2 1.5-0.9 1.5-1.7 0-0.8-0.9-0.7-1.4-0.4z"/>
				</g>
				<path id="&lt;Path&gt;" class="s2" d="m551.7 453.5c-0.6-0.2-1.3 0.1-1.9 0.5-0.6 0.5-1.2 1.2-1.2 2 0 0.7 0.5 0.9 1 0.9q0 0-0.1 0 0.3 0 0.6-0.1c0.9-0.3 1.6-0.8 1.9-1.6 0.3-0.5 0.4-1.5-0.3-1.7z"/>
				<path id="&lt;Path&gt;" class="s2" d="m538.9 461.6c-1.2 0.5-2.8 2.1-2.2 3.6q0.1 0.3 0.4 0.5c1.3 1.1 3.1-0.7 3.7-1.8q0.2-0.4 0.3-0.9c0.4-1.5-1-2-2.2-1.4z"/>
				<path id="&lt;Path&gt;" class="s2" d="m529.8 536.8c-0.3-0.1-0.8-0.1-1.2 0.1-1.3 0.3-2.6 1.6-2.8 2.8q0 0 0 0c-0.2 0.7-0.1 1.5 0.6 1.7 0.8 0.3 1.7-0.1 2.4-0.5 0.8-0.6 1.4-1.5 1.7-2.5 0.1-0.6 0-1.3-0.7-1.6z"/>
				<path id="&lt;Path&gt;" class="s2" d="m532.2 531.8c-0.4-0.8-1.2-0.6-1.9-0.3-0.6 0.2-1.2 0.9-1.4 1.4-0.2 0.4-0.4 1.1 0 1.5 0.8 0.6 2.4 0.1 2.9-0.7 0.4-0.6 0.8-1.2 0.4-1.9z"/>
				<path id="&lt;Path&gt;" class="s2" d="m519.3 538.7q0 0 0 0c-0.9 0.2-2.2 1.3-2.4 2.4q-0.1 0.4-0.1 0.8c0.2 1.7 2.1 0.8 2.8 0.1 0.6-0.6 1.2-1.5 1.2-2.3-0.1-0.9-0.7-1.2-1.5-1z"/>
				<path id="&lt;Path&gt;" class="s2" d="m517.7 551.2c-0.8 0-1.5 0.7-1.9 1.4-0.2 0.5-0.2 1.4 0.6 1.4 0.8 0 1.5-0.7 1.8-1.4 0.3-0.5 0.3-1.4-0.5-1.4z"/>
				<path id="&lt;Path&gt;" class="s2" d="m521.6 546.6c-0.3 0-0.8 0.7-0.4 0.7 0.4 0 0.9-0.7 0.4-0.7z"/>
				<g id="&lt;Group&gt;">
					<path id="&lt;Path&gt;" class="s2" d="m512.3 552.2q-0.1 0-0.2 0.1c-0.1 0-0.1 0 0.2-0.1z"/>
					<path id="&lt;Compound Path&gt;" class="s2" d="m513.9 548.5c-1-0.2-1.7 0.3-2.4 1q-0.2 0.1-0.3 0.3 0 0-0.1 0.1c0.1-0.2 0-0.1 0 0q-0.4 0.2-0.2 0.2c0.1-0.1 0.1 0 0 0-0.4 0.2-1.3 1.1-0.7 1.5 0.1 0.2 0.2 0.4 0.4 0.5q0.2 0 0.3 0c0.3 0.1 0.4 0.3 0.7 0.3q0.3 0 0.5-0.1c0.2-0.1 0.9-0.5 0.9-0.5 0.7-0.5 1.5-1.5 1.4-2.4 0-0.3-0.1-0.8-0.5-0.9z"/>
				</g>
				<path id="&lt;Path&gt;" class="s2" d="m525.5 556.5c-1.3 0-3.2 2.9-1.4 2.9 1.3 0 3.2-2.9 1.4-2.9z"/>
				<path id="&lt;Path&gt;" class="s2" d="m508.3 567.9c-1.2-0.4-2.7 0.9-3.1 1.9-0.2 0.5-0.3 0.8-0.3 1.3 0 0.5 0.2 0.8 0.6 1q0.1 0 0.1 0.1c1 0.4 2.3-0.6 2.8-1.4 0.5-0.8 1.2-2.4-0.1-2.9z"/>
				<path id="&lt;Path&gt;" class="s2" d="m501 623.2c-0.4-0.6-1.4-0.3-1.9-0.1-0.8 0.4-1.4 1.1-1.9 1.9q0 0 0 0.1c-0.1 0.1-0.2 0.3-0.2 0.4-0.4 0.6-0.5 1.8 0.4 2.1 0.9 0.4 2-0.4 2.6-1 0.9-0.8 1.8-2.3 1-3.4z"/>
				<path id="&lt;Path&gt;" class="s2" d="m506.5 618.3q0 0 0 0c-0.5 0.2-0.9 0.7-1.2 1.2-0.1 0.2-0.3 0.9 0 1.1q0.1 0 0.1 0.1c0.9 0.6 2-0.4 2.4-1.2 0.5-1-0.3-1.6-1.3-1.2z"/>
				<path id="&lt;Path&gt;" class="s2" d="m503.1 614.3q-0.1 0-0.1 0c-0.7 0-1.4 0.6-1.7 1.2-0.2 0.5-0.2 1.2 0.5 1.2h0.2c0.6 0 1.3-0.5 1.6-1.2 0.2-0.4 0.2-1.1-0.5-1.2z"/>
				<path id="&lt;Path&gt;" class="s2" d="m492.2 631.3c-0.7-0.1-1.3 0.5-1.5 1.2q-0.1 0.1-0.1 0.2c-0.4 1 0.9 0.9 1.4 0.5 0.5-0.3 1.4-1.8 0.2-1.9z"/>
				<path id="&lt;Path&gt;" class="s2" d="m494.9 641.6q0 0-0.1 0c-0.7 0.1-1.5 1-1.4 1.7q0 0.1 0 0.1 0 0.3 0.1 0.4 0 0.1 0.1 0.2c0.2 0.4 1.1 0 1.4-0.2 0.4-0.3 0.7-0.7 0.8-1.3 0.2-0.7-0.2-1-0.9-0.9z"/>
				<path id="&lt;Path&gt;" class="s2" d="m489.4 637.1c-0.3-0.8-1.2-0.9-1.9-0.7-1.7 0.4-3.9 2.6-3.3 4.5q0.1 0 0.1 0.1c0.3 0.8 1.2 0.9 1.9 0.7 1.3-0.3 2.3-1.4 2.9-2.5q0-0.1 0.1-0.2c0.3-0.5 0.4-1.3 0.2-1.9z"/>
				<path id="&lt;Path&gt;" class="s2" d="m489.3 622c-1.1 0.4-2.2 1.3-2.5 2.5-0.1 0.6 0.1 1.1 0.7 1.1 0.5 0.1 1-0.2 1.4-0.5q0.1-0.1 0.2-0.2c0.5-0.4 0.9-0.8 1.2-1.4 0.4-0.7 0-1.8-1-1.5z"/>
				<g id="&lt;Group&gt;">
					<path id="&lt;Path&gt;" class="s2" d="m481.3 658c-0.1-0.1-0.2-0.2-0.4-0.3-0.2-0.1-0.7 0-0.9 0.1q0.1 0 0.2 0c-0.6 0.2-1.2 0.7-1.3 1.3q0 0 0 0 0 0.1-0.1 0.1c-0.1 0.3-0.2 0.7 0 1 0.2 0.6 0.7 0.5 1.2 0.3q0 0 0.4-0.2 0-0.1 0.1-0.1c0.2-0.2 0.4-0.4 0.5-0.5q-0.1 0-0.1 0.1c0-0.1 0.1-0.2 0.2-0.3 0.3-0.4 0.6-1.1 0.2-1.5z"/>
					<path id="&lt;Path&gt;" class="s2" d="m478.8 659.2q0 0 0.1-0.1c-0.1 0.2-0.1 0.2-0.1 0.1z"/>
				</g>
				<path id="&lt;Path&gt;" class="s2" d="m491.5 653.8c-1.1-0.5-2.9 1.3-2.7 2.4-0.1 0.3-0.1 0.7 0.2 1q0 0.1 0.2 0.1c0.5 0.2 1.1-0.1 1.5-0.3 0.7-0.7 2.2-2.4 0.8-3.2z"/>
				<path id="&lt;Path&gt;" class="s2" d="m486.9 649.4q-0.1 0-0.1 0 0 0 0 0 0-0.1 0-0.1c0.3-0.4 0-0.8-0.5-0.5-0.6 0.4-1.1 0.8-1.1 1.6 0 0.4 0.3 0.5 0.6 0.4q0.2 0 0.3-0.1c0.4-0.1 1.2-0.8 0.8-1.3z"/>
				<path id="&lt;Path&gt;" class="s2" d="m475.2 646c-0.6-0.6-1.7-0.1-2.3 0.3-0.4 0.3-0.7 0.6-0.9 1-0.4 0.5-0.8 1.5-0.4 2.1q0.1 0.2 0.3 0.3 0.1 0 0.1 0 0 0.1 0.1 0.1c0.4 0.1 0.8 0 1.2-0.2 0.8-0.3 1.6-1 1.9-1.8 0.2-0.6 0.5-1.3 0-1.8z"/>
				<path id="&lt;Path&gt;" class="s2" d="m472 659.3c-0.8 0.6-1.6 1.8-1 2.8q0 0 0.1 0.1c0.2 0.3 0.7 0.3 1 0.2 0.5-0.2 1-0.3 1.4-0.8 0.4-0.6 0.6-1.1 0.7-1.8 0.2-1.4-1.6-0.9-2.2-0.5z"/>
				<path id="&lt;Path&gt;" class="s2" d="m506 654.1c-0.6-0.2-1.1-0.1-1.6 0.2-0.9 0.5-2.2 1.8-1.4 2.8q0 0.1 0.1 0.2c0.2 0.3 0.8 0.3 1.1 0.2q0.1 0 0.2-0.1c0.8-0.2 1.6-0.9 1.9-1.6 0.3-0.6 0.4-1.5-0.3-1.7z"/>
				<path id="&lt;Path&gt;" class="s2" d="m498.7 758.1c-1.2 0-2.3 1-2.8 2.1-0.4 0.8-0.4 2 0.8 2 1.2 0 2.3-1 2.8-2 0.4-0.8 0.4-2.1-0.8-2.1z"/>
				<path id="&lt;Path&gt;" class="s2" d="m502.6 752.5c-0.3 0-0.5 0.2-0.8 0.4-0.2 0.2-0.4 0.4-0.6 0.7-0.2 0.4-0.1 0.9 0.4 1 0.9 0.1 1.7-0.8 1.7-1.6 0.1-0.5-0.3-0.6-0.7-0.5z"/>
				<path id="&lt;Path&gt;" class="s2" d="m497.9 752.8c0 0-0.2-0.4-0.1-0.1q-0.2-0.3-0.5-0.2h-0.1c-0.4 0.1-1 0.6-0.9 1.1 0 0.3 0 0.4 0.2 0.6 0.7 0.5 1.9-0.8 1.4-1.4z"/>
				<g id="&lt;Group&gt;">
					<path id="&lt;Path&gt;" class="s2" d="m491.3 767c-0.5-0.6-1.4-0.5-2-0.2h-0.1q0.8-0.3-0.1 0c-0.3 0.2-0.7 0.5-1 0.8q-0.1 0.2-0.3 0.5c-0.1 0.1-0.1 0.2-0.2 0.4v-0.1q0.1-0.2 0.1-0.3c-0.2 0.5-0.5 1-0.4 1.5q-0.1 0.3-0.1 0.6 0 0.4 0 0.7c0.1 0.7 0.2 1 0.8 1.3 0.4 0.3 1.2 0 1.5-0.2 0.6-0.3 1.2-0.7 1.6-1.3 0.6-1 1.1-2.6 0.2-3.7z"/>
					<path id="&lt;Path&gt;" class="s2" d="m487.7 768.1q0.1 0 0.1 0 0-0.2-0.1 0z"/>
				</g>
				<path id="&lt;Path&gt;" class="s2" d="m498.9 767.1q0 0 0 0c-0.4-0.4-1.1 0-1.4 0.4-0.4 0.4-0.7 1-0.4 1.4q0 0 0 0c0 0.1 0 0.2 0.1 0.2 0.3 0.3 0.8 0 1-0.2q0.1-0.1 0.2-0.3 0.2-0.1 0.3-0.2 0.1-0.2 0.2-0.4c0.1-0.2 0.2-0.6 0-0.9z"/>
				<path id="&lt;Path&gt;" class="s2" d="m497.8 778.2c-0.2-0.4-0.5-0.6-1-0.6-1.1-0.1-3.3 2.2-1.8 2.9-0.3-0.1 0.2 0.2 0.3 0.2 0.6 0.3 1.4-0.2 1.8-0.7 0.4-0.3 1-1.2 0.7-1.8z"/>
				<path id="&lt;Path&gt;" class="s2" d="m508.7 762.3c-0.3-0.3-0.6-0.2-1 0-0.3-0.2-0.8 0.5-0.8 0.8 0.1 0.3-0.2 0.6 0.1 0.8 0.4 0.4 1 0 1.3-0.3 0.3-0.3 0.8-1 0.4-1.3z"/>
				<path id="&lt;Path&gt;" class="s2" d="m510.8 747.6c-0.9 0-1.8 0.8-2.2 1.6-0.3 0.7-0.3 1.7 0.7 1.7 0.9 0 1.8-0.8 2.2-1.6 0.3-0.7 0.3-1.7-0.7-1.7z"/>
				<path id="&lt;Path&gt;" class="s2" d="m504.6 769.8c-0.7 0.5-1.2 1.1-1.6 1.8-0.3 0.6-0.3 1.3 0.3 1.6 0.4 0.3 0.9 0.2 1.3 0.1 3.2-0.7 3.2-5.8 0-3.5z"/>
				<path id="&lt;Path&gt;" class="s2" d="m589.4 710.8q-0.1-0.1-0.2-0.2-0.1 0-0.1 0-0.1 0-0.3 0 0 0 0 0c-0.7 0-1.5 0.7-1.8 1.4-0.3 0.5-0.4 1.1-0.2 1.6 0.2 0.6 1 0.5 1.5 0.3 0.7-0.3 1.3-1 1.4-1.7q0.1-0.4 0.1-0.7c0.1-0.3-0.1-0.6-0.4-0.7z"/>
				<path id="&lt;Path&gt;" class="s2" d="m591.3 717.7c-0.5-0.4-1-0.3-1.4 0-0.4-0.1-1 0.5-0.9 0.9-0.2 0.4-0.2 1 0.1 1.4 0.7 0.8 2.2-0.7 2.3-1.4q0-0.1 0-0.1c0.1-0.3 0.1-0.6-0.1-0.8z"/>
				<path id="&lt;Path&gt;" class="s2" d="m587.6 729.3c-0.2-0.8-1.4-0.4-1.8-0.1-0.2 0.2-0.4 0.3-0.5 0.5 0.5-0.6 0-0.1-0.2 0.1-0.4 0.5-0.9 1.2-0.7 1.9 0.2 0.7 1.1 0.6 1.6 0.3 1-0.6 1.9-1.5 1.6-2.7z"/>
				<path id="&lt;Path&gt;" class="s2" d="m583.6 723.5c0.1-0.3 0.1-0.5 0.1-0.9 0-0.2-0.1-0.4-0.3-0.5-0.2-0.1-0.4-0.1-0.6-0.1-0.7 0.2-1.5 1-1.5 1.7 0.1 0.7 0.7 0.8 1.2 0.7q0 0 0 0c0.5 0.3 1.2-0.4 1.1-0.9q0 0 0 0z"/>
				<path id="&lt;Path&gt;" class="s2" d="m595.5 723c-0.4 0.1-1.1 0.8-0.5 0.9 0.3 0 0.4 0.3 0.6 0.4 0.3 0.1 0.5 0 0.9 0 0.2 0 0.5-0.3 0.5-0.6 0-1.1-0.8-0.8-1.5-0.7z"/>
				<path id="&lt;Path&gt;" class="s2" d="m600 736.7c-0.2-0.2-0.5-0.4-0.8-0.5-0.7-0.5-1.8 0.7-2 1.2-0.3 0.5-0.3 1-0.4 1.6-0.1 1.2 1.6 0.8 2.2 0.4 0.7-0.5 1.7-1.8 1-2.7z"/>
				<path id="&lt;Path&gt;" class="s2" d="m607.5 716.1c-0.2-0.5-0.7-0.4-1.1-0.2-1.2 0.6-1.9 1.9-1.7 3.3 0.2 1.2 1.9-0.1 2-0.8 0.2-0.8 1.2-1.4 0.8-2.3z"/>
				<path id="&lt;Path&gt;" class="s2" d="m600.9 708.3q-0.2-0.1-0.4-0.1c-1.4-0.2-2.7 1.6-2.7 2.8-0.1 0.6 0.4 1 0.9 1 0.7 0 1.4-0.4 1.9-0.9 0.7-0.7 1.5-2.4 0.3-2.8z"/>
				<path id="&lt;Path&gt;" class="s2" d="m620.1 784.8c-0.4-0.9-1.6-0.8-2.4-0.4-0.9 0.4-1.6 1.2-2.1 2.1-0.3 0.7-0.5 1.9 0.4 2.3q0 0 0 0c0.5 0.5 1.3 0.3 1.8 0 0.7-0.3 1.5-1 1.7-1.7q0.1-0.1 0.1-0.1c0.4-0.7 0.7-1.4 0.5-2.2z"/>
				<path id="&lt;Path&gt;" class="s2" d="m583.6 488c0-1.1-1.1-1.2-1.9-0.8-1 0.5-1.8 1.5-1.9 2.6q0 0.4 0 0.7c-0.1 1.1 1.2 1.1 1.9 0.8 1-0.5 2-1.6 2-2.7q0-0.3-0.1-0.6z"/>
				<path id="&lt;Path&gt;" class="s2" d="m586.7 483.4c-0.2-0.6-1.1-0.5-1.6-0.2-0.7 0.3-1.3 1-1.5 1.7q0 0.1 0 0.1c-0.2 0.6 0.1 1.1 0.7 1.2q0 0 0.1 0c1.1 0.1 2.7-1.6 2.3-2.8z"/>
				<path id="&lt;Path&gt;" class="s2" d="m580.8 479.5c-1.3 0-3.2 2.9-1.4 2.9 1.3 0 3.2-2.9 1.4-2.9z"/>
				<path id="&lt;Path&gt;" class="s2" d="m519.3 699.8q-0.2-0.5-0.7-0.6 0-0.1-0.1-0.1c-1-0.3-2.1 0.4-2.8 1.1-0.6 0.6-1.5 1.9-1.1 2.8 0.3 0.6 0.8 0.9 1.5 0.8q0.2 0.1 0.5 0c1.6-0.4 3-2.3 2.7-4z"/>
				<path id="&lt;Path&gt;" class="s2" d="m523.6 694.8q0 0 0-0.1c0-0.1 0-0.3 0-0.4 0-1-1.1-1.1-1.9-0.7-1 0.5-1.8 1.4-1.8 2.5q0 0.1 0 0.1-0.1 0.4 0.2 0.7c0.6 0.4 1.1 0.4 1.8 0.1 0.6-0.3 1.6-1.3 1.7-2.2q0 0.1 0 0z"/>
				<path id="&lt;Path&gt;" class="s2" d="m656.2 504.5q0 0-0.1-0.1 0 0 0 0c-0.1 0 0-0.1 0 0-0.6-0.9-2.3 0.4-2.6 1-0.5 0.8-0.7 1.2-0.9 2-0.3 0.7-0.3 1.3 0.2 1.9 0.7 1 2.3-0.4 2.7-1 0.4-0.6 1.1-1.9 1.1-2.9 0-0.4-0.1-0.7-0.4-0.9z"/>
				<path id="&lt;Path&gt;" class="s2" d="m662.1 503.9c-0.2-0.4-0.3-0.5-0.7-0.6-0.4-0.1-0.8 0.1-1 0.4-0.3 0.3-0.6 0.6-0.8 1.1-0.2 0.7-0.1 1.5 0.9 1.3 0.5-0.1 1-0.5 1.3-0.9 0.2-0.3 0.5-1 0.3-1.3z"/>
				<path id="&lt;Path&gt;" class="s2" d="m658.5 496.2c-0.3-0.1-0.1-0.1 0 0.1-0.2-0.3-0.5-0.4-0.8-0.3-0.9 0.3-1.7 1.3-1.3 2.3 0.6 1.4 3.6-1.2 2.1-2.1z"/>
				<path id="&lt;Path&gt;" class="s2" d="m670.9 493.4c-0.6 0-1.2 0.5-1.4 1.1-0.2 0.4-0.2 1.1 0.4 1.1 0.6 0 1.2-0.6 1.5-1.1 0.2-0.4 0.2-1.1-0.5-1.1z"/>
				<path id="&lt;Path&gt;" class="s2" d="m660.2 514.5c0-0.9-1-0.9-1.7-0.6-0.7 0.3-2 1.6-1.5 2.5q0.1 0.1 0.1 0.1c0.8 1.6 3.1-0.7 3.1-1.8q0-0.1 0-0.2z"/>
				<path id="&lt;Path&gt;" class="s2" d="m648.1 511.6c-0.5-0.5-1.4-0.3-2-0.1-0.9 0.5-2.1 1.5-2.2 2.6q0 0.1 0 0.1c-0.1 0.4-0.1 0.7 0 1 0.2 0.7 0.9 0.7 1.5 0.6q0.1 0 0.2 0c0.8-0.1 1.7-0.9 2.2-1.6 0.5-0.7 1-1.9 0.3-2.6z"/>
				<path id="&lt;Path&gt;" class="s2" d="m682.4 628.7c-0.2-0.7-1-0.7-1.6-0.6-0.9 0.3-2.1 1.4-1.8 2.5q0 0 0 0.1c0 0.3 0 0.7 0.3 0.9 0.8 0.6 1.7 0 2.3-0.5 0.6-0.6 1.1-1.5 0.8-2.4z"/>
				<path id="&lt;Path&gt;" class="s2" d="m683.1 636.1c-0.2-0.5-0.6-0.6-1.1-0.4-0.4 0.1-1.6 1.1-1 1.6 0.2 0 0.2 0.2 0.3 0.3 0.2 0.5 0.7 0.4 1.1 0q0.1 0 0.3-0.2 0.2-0.2 0.4-0.5c0.1-0.2 0.2-0.6 0-0.8z"/>
				<path id="&lt;Path&gt;" class="s2" d="m678.1 638.1c-0.8 0-1.6 0.7-2 1.5-0.3 0.5-0.3 1.5 0.6 1.5 0.9 0 1.7-0.8 2-1.5 0.3-0.6 0.3-1.5-0.6-1.5z"/>
				<path id="&lt;Path&gt;" class="s2" d="m674.6 630.7c-0.3-0.3-0.8-0.1-1.1 0-0.8 0.4-1.8 1.5-1.2 2.4q0.1 0 0.1 0.1c0.2 0.3 0.8 0.1 1.1 0 0.4-0.2 0.9-0.6 1.1-1.1q0 0 0 0 0-0.1 0.1-0.2c0.1-0.3 0.3-0.8-0.1-1.2z"/>
				<path id="&lt;Path&gt;" class="s2" d="m674 647.9c-1.3-0.5-3 1-3.3 2.2q0 0.3 0 0.6 0 0.3 0.2 0.6-0.2-0.3 0.1 0.1c0.1 0.2 0.4 0.3 0.5 0.4 0.2 0.1 0.4 0 0.6 0 1 0.1 2.3-1.3 2.5-2.1 0-0.3 0.1-0.6 0-0.9 0-0.4-0.1-0.7-0.6-0.9z"/>
				<path id="&lt;Path&gt;" class="s2" d="m685.7 650c-1 0-2 0.9-2.5 1.8-0.3 0.7-0.3 1.8 0.8 1.8 1 0 2-0.9 2.4-1.8 0.4-0.7 0.4-1.8-0.7-1.8z"/>
			</g>
			<g id="&lt;Group&gt;">
				<path id="&lt;Path&gt;" class="s1" d="m1004.9 838.4c0.4-1.9 0.7-3.9 0.7-6 0-14.8-12-26.8-26.8-26.8-2.1 0-4.1 0.3-6 0.7-1.8-12.1-9.5-22.4-20.1-27.6q0.2-1.8 0.2-3.6c0-20.3-16.4-36.7-36.7-36.7-8 0-15.4 2.6-21.4 7-4.9-8.2-13.8-13.7-24.1-13.7-15.4 0-28 12.6-28 28 0 7.3 2.8 13.9 7.4 18.9-19.1 7.5-32.6 26.1-32.6 47.8 0 4.2 0.5 8.2 1.4 12z"/>
				<path id="&lt;Path&gt;" class="s2" d="m866.1 745.9c-0.1-1.2-1.1-1.5-2.1-1.4-1.9 0.3-3.2 2.2-3.7 3.9-0.2 0.6-0.1 1.6 0.6 2q0 0 0.1 0.1c1.2 1.3 3.3-0.6 4-1.8 0.4-0.5 0.7-1.1 0.9-1.7q0.1-1.2 0.1-0.4 0.1-0.3 0.1-0.7z"/>
				<path id="&lt;Path&gt;" class="s2" d="m875.2 741.2c-0.9-2.5-4.3 0.2-5.1 1.2-0.4 0.6-1.6 2.4-0.9 3.2 0.7 0.7 1.4 0.7 2.4 0.6 1.8-0.4 4.3-3 3.6-5z"/>
				<path id="&lt;Path&gt;" class="s2" d="m874.2 749.3c-0.6-0.9-2.1 0.6-2.3 1.1-0.2 0.4-0.4 0.8-0.3 1.3 0.1 0.9 0.8 0.9 1.5 0.6 0.8-0.4 1.3-1.1 1.4-2 0.1-0.4-0.1-0.7-0.3-1z"/>
				<path id="&lt;Path&gt;" class="s2" d="m864.7 753.7c-0.9 0.1-1.7 0.6-1.3 1.6 0.1 0.3 0.5 0 0.6-0.2q0 0 0.1 0c0.6 0 1.4-1.4 0.6-1.4z"/>
				<path id="&lt;Path&gt;" class="s2" d="m927 751.5c-1.8 0-3.5 1.5-4.3 3.1-0.5 1.2-0.5 3.2 1.3 3.2 1.8 0 3.5-1.6 4.3-3.1 0.5-1.3 0.5-3.2-1.3-3.2z"/>
				<path id="&lt;Path&gt;" class="s2" d="m934.1 755.8c-0.7-0.1-1.3-0.2-2 0.2-0.4 0.2-1.1 1-1.6 1.1-0.3 0.1-1.2 1-0.6 1.3-0.3 0.5-0.4 1.1-0.1 1.7 0.6 1.1 1.8 0.9 2.7 0.4q0 0 0.1 0 0-0.1 0.1-0.1 0.2-0.1 0.4-0.3 0.6-0.4 1-0.9 0.6-1 0.1-0.2c0.5-0.6 1.4-2.9-0.1-3.2z"/>
				<path id="&lt;Path&gt;" class="s2" d="m930.9 764.9c-0.2-1-1.4-0.1-2 0.5q-0.2 0.1-0.3 0.2c-0.6 0.4-0.9 0.9-1.3 1.4-0.3 0.6-0.8 1.5-0.2 2 0.5 0.6 1.5 0.2 2-0.2 0.8-0.5 1.5-1.1 1.8-2 0.3-0.8 0.2-1.2 0-1.9z"/>
				<path id="&lt;Path&gt;" class="s2" d="m922.5 764.7c-0.2-0.1-0.3-0.4-0.4-0.5-0.3-0.4-0.5-0.4-0.9-0.4-0.8-0.1-2.7 1.7-1.7 2.4 0.4 0.4 1.1 0.7 1.7 0.6 0.7 0 2.4-1.5 1.3-2.1z"/>
				<path id="&lt;Path&gt;" class="s2" d="m963.8 805.6q-0.1 0-0.2 0c-1-0.7-2.1-0.3-3 0.3q-0.1 0.1-0.2 0.2c-0.7 0.4-1.2 1.1-1.6 1.8-0.3 0.6-0.6 1.8 0.1 2.3 0.6 0.5 1.1 0.5 1.9 0.3 1-0.1 2-1 2.6-1.8 0.4-0.7 1.3-2.4 0.4-3.1z"/>
				<path id="&lt;Path&gt;" class="s2" d="m966.6 816.3c-0.6 0-1.6 1.2-0.8 1.6 0 0 0.1 0.9 0.1 1.1 0.1 0.5 0.9 0.3 1.2 0.2 0.6-0.3 1-0.9 1.1-1.6 0.1-1-0.6-1.5-1.6-1.3z"/>
				<path id="&lt;Path&gt;" class="s2" d="m952.9 813.9q-0.2 0-0.4 0c-0.7 0.1-1.3 0.6-1.6 1.2-0.2 0.5-0.2 1.1 0.5 1.1l0.4 0.1c1.2 0 2.5-2.5 1.1-2.4z"/>
				<path id="&lt;Path&gt;" class="s2" d="m953.6 799.1c-0.6-0.8-2.2-0.5-2.8-0.1q-0.1 0-0.2 0.1c-1.6 0.9-3.2 2.4-3.2 4.4 0 1.9 2 1.7 3.3 1.2 0.7-0.2 1.4-0.8 1.9-1.3 1-1.1 2.1-2.8 1-4.3z"/>
				<path id="&lt;Path&gt;" class="s2" d="m976.1 817.3l-0.6 0.5c-0.4 0.2-1 0.9-0.6 1.4 0.5 0.5 1.2-0.2 1.5-0.5q0.2-0.3 0.5-0.6c0.6-0.7-0.2-1.4-0.8-0.8z"/>
				<path id="&lt;Path&gt;" class="s2" d="m863.3 796.5c-1.9 0-3.7 1.6-4.5 3.2-0.6 1.3-0.6 3.3 1.3 3.3 1.9 0 3.7-1.6 4.5-3.2 0.6-1.3 0.6-3.3-1.3-3.3z"/>
				<g id="&lt;Group&gt;">
					<path id="&lt;Path&gt;" class="s2" d="m859.7 792.5q0 0 0 0c-0.2 0.2-0.5 0.6 0 0z"/>
					<path id="&lt;Path&gt;" class="s2" d="m859.5 789.6c-0.9 0.2-2.7 1.8-2.1 2.9 0.6 0.9 1.6 0.7 2.3 0q0.1-0.1 0.2-0.2 0.4-0.4 0.6-1c0.4-0.9 0.2-2-1-1.7z"/>
				</g>
				<path id="&lt;Path&gt;" class="s2" d="m850.1 790.3c-0.7 0-1.7 1.5-0.7 1.5 0.6 0 1.6-1.5 0.7-1.5z"/>
				<path id="&lt;Path&gt;" class="s2" d="m853.2 796.6c-1.6 0-3.9 3.6-1.7 3.6 1.6 0 3.9-3.6 1.7-3.6z"/>
			</g>
			<g id="&lt;Group&gt;">
				<path id="&lt;Path&gt;" class="s1" d="m715 838.4q0.2-0.2 0.4-0.5 0.3 0.3 0.6 0.5h32.3c1.2-0.9 2.2-2 3.2-3.1 3.7 1.6 7.8 2.6 12 3.1h9.9c4.9-0.6 9.7-2 14-4 2.4 0.8 4.9 1.4 7.6 1.4 12.2 0 22-9.9 22-22.1 0-5.4-1.9-10.4-5.2-14.2q0.2-2.2 0.2-4.4c0-24.1-19.5-43.6-43.6-43.6q-2.6 0-5.1 0.3c-2.6-9.3-11.1-16.1-21.1-16.1-12.2 0-22.1 9.9-22.1 22 0 2 0.3 4 0.8 5.8-11.9 2.1-21 12.4-21 24.9 0 1.2 0.2 2.4 0.3 3.6q-1.7-0.3-3.5-0.3c-12.2 0-22 9.9-22 22q0 0.3 0 0.5c-6.2 3.2-10.5 9.7-10.5 17.2 0 2.5 0.5 4.8 1.3 7z"/>
				<path id="&lt;Path&gt;" class="s2" d="m746.5 748.9c-0.5-0.5-1.3-0.5-2-0.3-0.9 0.2-1.8 0.8-2.5 1.5-0.7 0.7-1.7 2.1-1.6 3.2q0 0.2 0.1 0.3c0.5 4 6 0.1 6.4-2.3q0-0.2 0-0.3c0.1-0.8 0.2-1.5-0.4-2.1z"/>
				<path id="&lt;Path&gt;" class="s2" d="m748.8 757c-0.3-0.4-0.8-0.6-1.3-0.6q0-0.1 0-0.1c-0.3-1.2-2.3 0.6-2.3 1.3 0 1-0.1 2.6 1.5 2.4 1.1-0.2 3.1-1.7 2.1-3z"/>
				<path id="&lt;Path&gt;" class="s2" d="m750.8 755.8q0 0.3 0.1 0.5c0.2 0.9 1.6-0.3 1.6-0.8q0.1-0.3 0.1-0.6c0.2-1.4-2-0.3-1.8 0.9z"/>
				<path id="&lt;Path&gt;" class="s2" d="m739.4 759.4c-0.2-0.2-0.4-0.4-0.8-0.4-0.2 0-0.4 0.1-0.6 0.1 0 0-1.4 0.6-0.8 0.3-0.9 0.4-1.8 1.5-1.8 2.5 0 1.1 1.2 1.1 1.9 0.8 0.6-0.3 1.2-0.8 1.6-1.3 0.1-0.2 0.2-0.4 0.3-0.6 0.3-0.4 0.7-1.1 0.2-1.4z"/>
				<path id="&lt;Path&gt;" class="s2" d="m715.8 782.8c-2.5 0-4.9 2.1-5.9 4.2-0.8 1.7-0.8 4.4 1.7 4.4 2.5 0 4.9-2.1 5.9-4.3 0.8-1.7 0.8-4.3-1.7-4.3z"/>
				<path id="&lt;Path&gt;" class="s2" d="m724.1 793.5c-1.3 0-2.5 1.1-3 2.2-0.4 0.9-0.4 2.2 0.9 2.2 1.3 0 2.5-1 3-2.1 0.4-0.9 0.4-2.3-0.9-2.3z"/>
				<path id="&lt;Path&gt;" class="s2" d="m729.9 783.1c-0.7-0.2-1.6 0.5-2 1-0.1 0.2-0.2 0.3-0.2 0.5-0.1 0.4 0.2 0.9 0.6 1.2q-0.2-0.1-0.4-0.1-0.1 0 0.1 0.2c0.4 1.1 2-0.5 2.1-1.1q0.1-0.2 0.1-0.4c0.2-0.5 0.3-1.1-0.3-1.3z"/>
				<path id="&lt;Path&gt;" class="s2" d="m712.7 799.3q-0.3 0-0.6 0.1c-0.8 0.2-1.6 0.9-1.9 1.7-0.2 0.4-0.4 1.5 0.3 1.7q0.2 0 0.4 0.1c1.2 0.3 2.4-0.8 2.9-1.8 0.5-1 0.1-2.1-1.1-1.8z"/>
				<path id="&lt;Path&gt;" class="s2" d="m688.9 821.8c-3.5 0-8.6 7.9-3.8 7.9 3.6 0 8.7-7.9 3.8-7.9z"/>
				<path id="&lt;Path&gt;" class="s2" d="m685.8 817.3q0-0.1 0-0.1c0-0.6-0.5-0.8-0.9-0.7-0.1 0-0.1 0-0.2 0q-0.1 0-0.2 0.1-0.2 0-0.3 0.1-0.1 0.1-0.2 0.1 0 0 0 0-0.1 0.1-0.3 0.3-0.2 0.2-0.3 0.4-0.1 0.1-0.2 0.2 0 0.1-0.1 0.2c-0.2 0.3-0.2 0.7-0.1 1 0.1 0.4 0.5 0.7 0.9 0.9 0.4 0.1 0.8-0.3 1-0.5 0.4-0.6 0.8-1.2 0.9-1.9q0-0.1 0-0.1z"/>
				<path id="&lt;Path&gt;" class="s2" d="m795 774.9c-2.4 0-4 2-4.3 4q1 0.9 2.1 1.8 0.8-0.2 1.5-0.7c0.8-0.6 1.4-1.3 1.8-2.1 0.6-1.2 0.6-3-1.1-3z"/>
				<path id="&lt;Path&gt;" class="s2" d="m792.6 788.5c-0.6 0-1.1 0.2-1.5 0.6q-0.5 0.4-0.8 0.8-0.5 0.9-0.2 0.4c-0.5 0.8-1.1 2.5 0.5 2.5 1.3 0.1 2.5-1.2 2.9-2.5q0.1-0.3 0.1-0.8-0.1-0.9-1-1z"/>
				<path id="&lt;Path&gt;" class="s2" d="m780.1 784.5c-0.1 0.1-0.1 0.1-0.2 0.2 0.1-0.1 0.2-0.2 0.3-0.4 0.2-0.9-1.7 0.4-1.7 0.3-0.4 0.7 0.3 1.2 0.9 1.1 0.4 0 1.4-0.9 0.7-1.2z"/>
				<path id="&lt;Path&gt;" class="s2" d="m782 769.3c-0.2-0.3-0.8 0-1.1 0.2-0.1 0.1-0.3 0.3-0.2 0.5q0 0.1 0.1 0.2c-0.5 0.5-0.1 1 0.5 0.5 0.3-0.3 0.6-0.5 0.7-0.9q0.2-0.2 0-0.5z"/>
				<path id="&lt;Path&gt;" class="s2" d="m782.8 796.6c-0.9-0.8-2.5-0.2-3.2 0.4q-0.2 0.2-0.4 0.3c-0.6 0.5-1.2 1-1.5 1.8-0.3 0.5-0.4 1.1-0.2 1.6q0 0 0 0 0.1 0.2 0.1 0.3c0.2 0.9 1.3 1 2 0.8 1.4-0.3 2.6-1.4 3.2-2.7 0.4-0.7 0.6-1.8 0-2.5z"/>
			</g>
			<g id="&lt;Group&gt;">
				<path id="&lt;Path&gt;" class="s3" d="m823.8 828.4c0 2.2-1.8 4-4 4h-8.2c-2.2 0-4-1.8-4-4v-407.4c0-2.2 1.8-4 4-4h8.2c2.2 0 4 1.8 4 4z"/>
			</g>
			<g id="&lt;Group&gt;">
				<path id="&lt;Path&gt;" class="s4" d="m1011.7 428.7c0 108.3-87.8 196-196 196-108.2 0-196-87.7-196-196 0-108.2 87.8-196 196-196 108.2 0 196 87.8 196 196z"/>
				<path id="&lt;Path&gt;" class="s5" d="m963.8 428.7c0 81.8-66.3 148.1-148.1 148.1-81.8 0-148.1-66.3-148.1-148.1 0-81.8 66.3-148.1 148.1-148.1 81.8 0 148.1 66.3 148.1 148.1z"/>
				<path id="&lt;Path&gt;" class="s4" d="m911.6 428.7c0 53-43 95.9-95.9 95.9-52.9 0-95.8-42.9-95.8-95.9 0-52.9 42.9-95.8 95.8-95.8 52.9 0 95.9 42.9 95.9 95.8z"/>
				<path id="&lt;Path&gt;" class="s5" d="m863.8 428.7c0 26.6-21.6 48.1-48.1 48.1-26.5 0-48-21.5-48-48.1 0-26.5 21.5-48 48-48 26.5 0 48.1 21.5 48.1 48z"/>
				<path id="&lt;Path&gt;" class="s5" d="m880.2 260.7q-0.1 0-0.1 0c-1.2-0.4-2.5 0.4-3.2 1.1q-0.1 0.2-0.2 0.2c-0.8 0.7-1.3 1.8-1.1 2.8q0.1 0.1 0.1 0.2c0.5 1.9 3.2 0.2 3.9-0.4q0.1-0.1 0.1-0.1c0.8-0.7 2.2-3.2 0.5-3.8z"/>
				<path id="&lt;Path&gt;" class="s5" d="m884.8 258.7c-1.1-0.4-2.3 1-2.6 1.9-0.1 0.4-0.1 0.7-0.2 1 0 0.4 0.4 0.5 0.7 0.4 0.7-0.1 1.3-0.5 1.8-1 0.5-0.4 1.3-1.9 0.3-2.3z"/>
				<path id="&lt;Path&gt;" class="s5" d="m881.1 256.7q-0.2-0.1-0.3-0.1c-1.6-0.4-2.8 2.6-1.1 2.3q0.2-0.1 0.4-0.1c0.6-0.2 2.1-1.6 1-2.1z"/>
				<path id="&lt;Path&gt;" class="s5" d="m891.9 260.5q-0.1 0-0.3-0.1c0 0 0 0-0.1 0q0 0-0.1 0c-0.2 0-0.5 0.3-0.4 0.5q0 0.1 0.1 0.1 0.1 0 0.1 0 0.1 0 0.1 0 0.2 0 0.4 0c0.2 0 0.6-0.5 0.2-0.5z"/>
				<path id="&lt;Path&gt;" class="s5" d="m890 264.4c0 0.4-0.4 0.5-0.3 0.9 0 0.2 0.3 0 0.3-0.1 0.2-0.4 0.6-0.6 0.8-1.1 0.1-0.5-0.8-0.2-0.8 0.3z"/>
				<path id="&lt;Path&gt;" class="s5" d="m885.6 267.3c-0.9 0-1.7 0.7-2 1.4-0.3 0.6-0.3 1.5 0.6 1.5 0.8 0 1.6-0.7 2-1.5 0.2-0.5 0.2-1.4-0.6-1.4z"/>
				<path id="&lt;Path&gt;" class="s5" d="m714.1 277.1q-0.2 0-0.5 0c-0.9 0.1-1.7 0.8-2.1 1.6-0.3 0.7-0.3 1.6 0.6 1.6q0.2 0 0.4 0c0.9 0.1 1.8-0.8 2.2-1.6 0.3-0.6 0.3-1.6-0.6-1.6z"/>
				<path id="&lt;Path&gt;" class="s5" d="m722.4 279.1c-1.2 0-2.4 1.1-2.9 2.1-0.4 0.8-0.3 2.1 0.9 2.1 1.2 0 2.3-1 2.8-2 0.4-0.9 0.4-2.2-0.8-2.2z"/>
				<path id="&lt;Path&gt;" class="s5" d="m725.6 272.8c-0.4-0.8-1.2-0.7-2-0.3-0.7 0.3-2 1.7-1.2 2.5 0.4 0.3 0.9 0.3 1.1 0.2 0.4 0 1-0.3 1.4-0.7q0 0.1 0 0.1 0.1-0.1 0.1-0.1c0.5-0.4 0.9-1.1 0.6-1.7z"/>
				<path id="&lt;Path&gt;" class="s5" d="m720.1 274.1c-0.1-0.2-0.3 0-0.4 0.1-0.1 0.1-0.1 0.2-0.2 0.2-0.3 0-0.7 0.7-0.3 0.7 0.5-0.1 1.1-0.5 0.9-1z"/>
				<path id="&lt;Path&gt;" class="s5" d="m728.4 264c-0.9 0-1.3 1-1.1 1.6 0.2 0.6 0.9-0.1 1.1-0.4 0.1-0.1 0.2-0.2 0.3-0.3 0.1-0.3 0.3-0.8-0.3-0.9z"/>
				<path id="&lt;Path&gt;" class="s5" d="m735.4 258.8c-1 0.2-1.7 1-2.1 1.9-0.1 0.3-0.1 0.6 0.3 0.6 0.9 0.1 1.5 0 2.1-0.8 0.5-0.5 1-2-0.3-1.7z"/>
				<path id="&lt;Path&gt;" class="s5" d="m740.2 259.7c-0.3-0.3-0.6-0.1-1-0.1-0.5 0-1 0.5-1 0.9 0 0.2 0 0.3 0 0.4q0 0 0 0.1c-0.1 0.3-0.1 0.6 0 0.9 0.1 0.5 0.8 0.3 1.2 0.2 0.6-0.3 1.2-1 1.2-1.7q0-0.1 0-0.1c0-0.3-0.2-0.5-0.4-0.6z"/>
				<path id="&lt;Path&gt;" class="s5" d="m738.8 268.7q0-0.2-0.1-0.4c-0.1-0.1-0.1-0.1-0.1-0.1 0.3-0.7-0.4-0.9-0.9-0.5-0.9 0.6-1.5 1.3-1.8 2.4-0.3 1 0.7 1.3 1.5 0.9 0.8-0.3 1.7-1.4 1.4-2.3z"/>
				<path id="&lt;Path&gt;" class="s5" d="m734 267c-1.1 0-2.7 2.5-1.2 2.5 1.1 0 2.7-2.5 1.2-2.5z"/>
				<g id="&lt;Group&gt;">
					<path id="&lt;Path&gt;" class="s5" d="m718.5 269.9c0-0.3-0.1-0.7-0.4-0.8-0.7-0.2-1.5 0.3-2 0.7-0.5 0.5-1 1.3-0.7 2 0.3 0.8 1.2 0.5 1.8 0.1 0.6-0.3 1.6-1.2 1.3-2z"/>
					<path id="&lt;Path&gt;" class="s5" d="m717.4 271.8q-0.1 0.1-0.2 0.1 0 0.1 0 0.1 0.1-0.1 0.2-0.2z"/>
				</g>
				<path id="&lt;Path&gt;" class="s5" d="m701.7 288.1c-0.6 0-1.5 1.3-0.7 1.3 0.7 0 1.5-1.3 0.7-1.3z"/>
				<path id="&lt;Path&gt;" class="s5" d="m704 295.9c-0.5-1.1-2 0.4-2.3 1.1-0.2 0.3-0.4 0.6-0.5 1q-0.2 0.9 0.3 1.5c0.8 1.1 2.6-0.5 3-1.1 0.4-0.6 0.4-0.9 0.5-1.6 0-0.6-0.6-0.8-1-0.9z"/>
				<path id="&lt;Path&gt;" class="s5" d="m712.6 289.1c-0.7-0.7-2-0.2-2.6 0.3q-0.1 0-0.2 0.1c-0.8 0.6-2.1 2.1-1.7 3.3q0 0.1 0 0.3c0 0.4 0.3 0.5 0.6 0.4 0.2 0 0.4 0.1 0.6 0.1 1.4-0.2 2.7-1.1 3.2-2.3q0.1-0.1 0.1-0.2c0.3-0.6 0.5-1.5 0-2z"/>
				<path id="&lt;Path&gt;" class="s5" d="m720 289.6c-1-0.3-2-0.1-3-0.1-0.2 0-0.5 0.4-0.2 0.4 1 0.1 2 0.2 3 0 0.1 0 0.4-0.3 0.2-0.3z"/>
				<path id="&lt;Path&gt;" class="s5" d="m751.7 394.9c-0.4-1-1.6-0.8-2.4-0.5q0 0-0.1 0.1c-1 0.4-2.5 1.9-2.3 3.2q0 0 0 0c0.4 2.5 3.3 0.7 4.2-0.5 0.4-0.6 0.9-1.5 0.6-2.3z"/>
				<path id="&lt;Path&gt;" class="s5" d="m752.1 378.6c-1.5 0-2.9 1.3-3.5 2.6-0.5 1-0.5 2.6 1 2.6 1.5 0 2.9-1.3 3.6-2.5 0.5-1.1 0.4-2.7-1.1-2.7z"/>
				<path id="&lt;Path&gt;" class="s5" d="m757 373.9c-1.4 0-2.6 1.1-3.2 2.3-0.4 0.9-0.4 2.4 0.9 2.4 1.4 0 2.7-1.2 3.2-2.3 0.5-1 0.4-2.4-0.9-2.4z"/>
				<path id="&lt;Path&gt;" class="s5" d="m760.9 381.7q0-0.1-0.1-0.2c-0.4-0.8-1.5 0.2-1.8 0.7-0.4 1 0.5 1.2 1.1 0.7q0.1 0 0.2-0.1c0.3-0.2 0.8-0.7 0.6-1.1z"/>
				<path id="&lt;Path&gt;" class="s5" d="m765 384c-0.2-0.3-0.6-0.5-1-0.5-0.2 0-0.5 0.3-0.3 0.5q0.1 0.1 0.2 0.2-0.1 0.2-0.2 0.4c-0.1 0.3 0.1 0.5 0.3 0.6 0.3 0 0.5-0.2 0.7-0.4 0.2-0.1 0.5-0.5 0.3-0.8z"/>
				<path id="&lt;Path&gt;" class="s5" d="m762.7 389c-0.1-0.4-0.6 0.1-0.7 0.3q0 0.1 0 0.1-0.1 0-0.1 0.1c-0.1 0-0.5 0.3-0.3 0.5 0.3 0.2 0.4 0.2 0.7 0.1 0.3-0.1 0.5-0.4 0.5-0.7q0-0.2-0.1-0.4z"/>
				<path id="&lt;Path&gt;" class="s5" d="m758.8 386.9c0-0.1-0.2-0.7-0.2-0.5-0.1-0.4-0.7-0.5-1-0.4-0.8 0.2-1.4 0.8-1.7 1.4-0.2 0.5-0.3 0.9-0.1 1.4 0.1 0.3 0.4 0.5 0.7 0.5q0.5 0 0.8-0.2c0.7 0.1 1.7-0.8 1.5-1.5q0.1-0.4 0-0.7z"/>
				<path id="&lt;Path&gt;" class="s5" d="m888.7 396.8c-0.2-0.1-0.5 0-0.7 0-0.2 0.1-0.9 0.7-0.4 0.8 0.2 0.1 0.4 0.2 0.5 0.4 0.2 0.2 0.5-0.1 0.5-0.3 0.1-0.2 0.2-0.4 0.2-0.7q0-0.1-0.1-0.2z"/>
				<path id="&lt;Path&gt;" class="s5" d="m889.9 403c-0.1-0.2-0.3-0.5-0.4-0.7-0.2-0.7-1.2 0.3-1.3 0.6-0.1 0.8-0.5 1.3-0.4 2.2 0 0.6 0.6 0.6 1.1 0.4 0.6-0.3 1-0.9 1.1-1.5 0-0.4 0.1-0.7-0.1-1z"/>
				<path id="&lt;Path&gt;" class="s5" d="m895 399.7c0-0.5-0.5-0.6-0.9-0.5-0.6 0.1-1.1 0.7-1.3 1.3q-0.1 0.2-0.1 0.4c0 0.1 0 0.1 0 0.2-0.1 0.2-0.1 0.4 0 0.6 0.2 0.5 0.7 0.1 1.1-0.2 0.2-0.1 0.5-0.3 0.6-0.5 0.4-0.4 0.6-0.8 0.6-1.3z"/>
				<path id="&lt;Path&gt;" class="s5" d="m889.7 388.1q0-0.1-0.1-0.1c-1-1.2-3.8 1.7-2.6 2.7q0 0 0 0c1.2 1 3.7-1.5 2.7-2.6z"/>
				<path id="&lt;Path&gt;" class="s5" d="m880.1 401.6c-0.2 0.2-1.1 1.3-0.3 1.5 0.7 0.1 1.2-0.4 1.4-1.1 0.2-0.7-0.6-0.7-1.1-0.4z"/>
				<path id="&lt;Path&gt;" class="s5" d="m820.7 348.9q0.1 0 0 0c-0.6-0.5-1.4 0.4-1.7 0.8q0 0.1 0 0.1c-0.7 0.9-0.3 2 0.9 1.5 0.6-0.3 2-1.9 0.8-2.4z"/>
				<g id="&lt;Group&gt;">
					<path id="&lt;Path&gt;" class="s5" d="m820 354.3q0 0 0 0c-0.1-0.1-0.1-0.2 0 0z"/>
					<path id="&lt;Path&gt;" class="s5" d="m823.7 351.9c-0.2-0.6-0.8-0.7-1.4-0.5q-0.5 0.1-0.9 0.4c-0.1 0.1-0.1 0.1-0.1 0.1-0.8 0.4-1.5 1.2-1.4 2q0 0 0 0 0 0.2 0.1 0.4c0 0.2 0.2 0.6 0.2 0.6 0.5 0.4 1.2 0.3 1.7 0 1-0.4 2.3-1.8 1.8-3z"/>
				</g>
				<path id="&lt;Path&gt;" class="s5" d="m829.9 346.7c-0.8-0.8-2.2 0.6-2.6 1.3q0 0.1-0.1 0.3c-0.3 0.3-0.8 0.9-0.3 1.1 0.7 0.1 1 0.1 1.7-0.1 0.8-0.3 2.1-1.8 1.3-2.6z"/>
				<path id="&lt;Path&gt;" class="s5" d="m809.2 495c-0.6 0-1.5 1.4-0.7 1.4 0.7 0 1.6-1.4 0.7-1.4z"/>
				<path id="&lt;Path&gt;" class="s5" d="m818.8 491c-0.2-0.8-1-0.4-1.4 0q-0.3 0.2-0.5 0.4 0 0.1-0.1 0.2c-0.4 0.2-1.1 1.3-0.3 1.4 0.5 0 0.9-0.1 1.2-0.3 0.5-0.3 1.2-0.9 1.1-1.5q0-0.1 0-0.2z"/>
				<path id="&lt;Path&gt;" class="s5" d="m809.9 487.6c-0.6 0.3-2.3 2.2-1 2.5q0.1 0 0.1 0c0.6 0.6 1.5-0.4 1.8-0.9q0 0 0.1 0c0.7-0.9 0.2-2.2-1-1.6z"/>
				<path id="&lt;Path&gt;" class="s5" d="m803 491.3q0-0.1 0-0.1 0-0.1 0-0.2-0.1-0.1-0.2-0.2-0.1-0.1-0.2-0.3c-0.5-0.4-1.3 0.4-1.4 0.7q-0.1 0.3-0.3 0.5c-0.4 0.8 0.2 1.3 1 1q0.1-0.1 0.3-0.2 0 0 0.1-0.1c0.3-0.3 0.7-0.8 0.7-1.1z"/>
				<path id="&lt;Path&gt;" class="s5" d="m807 500.9c-0.5-0.2-1 0.2-1.3 0.6q0 0 0 0c-0.4 0.4-0.7 1-0.5 1.6 0 0.1 0.1 0.3 0.2 0.4 0.7 0.6 1.7-0.2 2-0.7 0.6-0.8 0.4-1.6-0.4-1.9z"/>
				<path id="&lt;Path&gt;" class="s5" d="m817 497.2c-0.7 0.1-1.4 0.6-1.9 1.2q0 0 0 0c-0.6 0.1-1.7 1.5-0.6 1.7 0.6 0.1 1 0.4 1.7 0.1 0.8-0.4 1.4-1.2 1.7-2.1 0.2-0.7-0.3-1-0.9-0.9z"/>
				<path id="&lt;Path&gt;" class="s5" d="m887.7 454.7q-0.2-0.1-0.4-0.2c-1-0.5-2.6 1.2-2.2 2.1q0.1 0.2 0.1 0.3c0 0.5 0.2 1 0.8 1q0 0-0.1 0c0.8 0.4 1.9-0.8 2.2-1.4q0.1-0.1 0.1-0.3c0.4-0.7 0.2-1.4-0.5-1.5z"/>
				<path id="&lt;Path&gt;" class="s5" d="m888.6 460c-0.6-0.4-1.8 0.7-1.5 1.3 0.5 0.9-0.1 1.7 0.8 2.4 0.3 0.2 0.7-0.1 0.9-0.3 0.7-1.2 0.9-2.4-0.2-3.4z"/>
				<g id="&lt;Group&gt;">
					<path id="&lt;Path&gt;" class="s5" d="m887.7 467.8c-0.1-1-1.6 0-1.6 0.6-0.1 0.7-0.5 1.2-0.6 1.9 0 0.2 0.2 0.4 0.4 0.5 0 0.1 0.2 0.1 0.2 0.1 0.5 0 0.9-0.3 1.2-0.6 0.4-0.3 0.7-0.9 0.7-1.4 0.1-0.4-0.2-0.7-0.3-1.1z"/>
					<path id="&lt;Path&gt;" class="s5" d="m885.9 470.9q0-0.1 0-0.1c-0.1 0-0.1 0 0 0.1z"/>
				</g>
				<path id="&lt;Path&gt;" class="s5" d="m882.9 467.1c-0.1 0-0.2 0.2-0.1 0.2 0.1 0 0.2-0.2 0.1-0.2z"/>
				<path id="&lt;Path&gt;" class="s5" d="m746.3 471.5c-0.5-0.7-1.6 0.1-1.8 0.7q0 0.1 0 0.1c-0.4 0.6-0.6 1.4 0.3 1.6 0.4 0.1 0.9-0.3 1.2-0.6 0.4-0.4 1-1.4 0.3-1.8z"/>
				<path id="&lt;Path&gt;" class="s5" d="m752.4 466.2c-0.1-0.3-0.2-0.3-0.4-0.5-0.6-0.3-1.6 0.3-1.9 0.7-0.3 0.3-0.7 0.7-0.8 1.1-0.1 0-0.5 0.8-0.2 0.4-0.8 1 0.1 1.9 1.1 1.1-0.4 0.3 0.4-0.1 0.4-0.2 0.4-0.1 0.8-0.5 1.1-0.8 0.4-0.3 1-1.3 0.7-1.8z"/>
				<path id="&lt;Path&gt;" class="s5" d="m972.8 499.9c-0.8 0-1.9 1.7-0.8 1.7 0.7 0 1.8-1.7 0.8-1.7z"/>
				<path id="&lt;Path&gt;" class="s5" d="m978.7 494.2c-1.4-0.4-1.7 1.1-2.6 1.8-0.4 0.4-1.2 1.9 0 1.6 1.4-0.3 2.5-1.1 3-2.5 0.1-0.3 0-0.8-0.4-0.9z"/>
				<path id="&lt;Path&gt;" class="s5" d="m974.2 489.7q-0.2-0.2-0.1-0.6c0-0.5-0.7-0.3-1.1 0q0 0 0 0 0 0 0 0.1c-0.2 0.2-0.4 0.4-0.3 0.6q-0.1 0.2 0 0.4c0.3 0.4 0.5 0.6 0.9 0.5 0.4 0 1.2-0.7 0.6-1z"/>
				<path id="&lt;Path&gt;" class="s5" d="m977.9 506q0 0 0 0c-0.1-0.6-1 0-1 0.4q0.2-0.1-0.1 0.1-0.2 0.4 0.1 0.1c-0.4 0.2-0.8 0.7-0.6 1.2 0.1 0.4 0.7 0.2 1 0 0.5-0.4 0.8-0.8 0.8-1.4 0-0.2-0.1-0.3-0.2-0.4z"/>
				<path id="&lt;Path&gt;" class="s5" d="m972.5 516.2q-0.1-0.3-0.3-0.4c-0.1-1-1.6 0-1.7 0.6 0 0.1-0.2 0.6-0.2 0.8-0.4 1.6 2.6 0.5 2.2-1z"/>
				<path id="&lt;Path&gt;" class="s5" d="m968.4 513q-0.3-0.5-0.6-1c-0.9-1.5-3.6 0.9-2.6 2.2 0.3 0.4 1 0.4 1.4 0.6 0.8 0.2 2.2-1 1.8-1.8z"/>
				<path id="&lt;Path&gt;" class="s5" d="m848.8 592.5q-0.1-0.1-0.2-0.3c-0.3-0.8-1.4 0.3-1.5 0.7q0 0.2-0.1 0.5c-0.4 1.2 2.3 0.4 1.8-0.9z"/>
				<path id="&lt;Path&gt;" class="s5" d="m849.8 598.9q0 0.1 0.1 0.1c-0.4-1.1-2 0.5-2 1.2 0 0.3-0.1 0.5-0.1 0.8-0.2 1.1 0.6 1.6 1.6 1.1 1-0.5 1.6-1.2 1.7-2.3 0.1-0.7-0.7-1-1.3-0.9z"/>
				<path id="&lt;Path&gt;" class="s5" d="m861.2 590.6c-1.2 0-2.9 1.5-2.8 2.8q0.1 0.2 0.1 0.4c-0.3 0.8 0.3 1.2 1.1 0.7-0.4 0.3 0.7-0.3 0.6-0.2 0.5-0.2 0.8-0.5 1.1-0.8 0.6-0.7 1.7-2.9-0.1-2.9z"/>
				<path id="&lt;Path&gt;" class="s5" d="m854.9 591.2c0 0-0.1-0.3-0.2-0.4-0.4-1-1.6 0.5-1.7 1.1 0 0.1 0 0.3 0 0.4 0.3 0.5 0.9 0.3 1.2 0q0.1 0 0.2-0.1c0.2-0.1 0.8-0.7 0.5-1z"/>
				<path id="&lt;Path&gt;" class="s5" d="m855.2 584.7c-0.4-0.2-0.7-0.4-1.2 0-0.4 0.2-0.6 0.5-0.6 0.9 0 0.2 0.1 0.5 0.4 0.4 0.4 0 0.6-0.1 0.9-0.3 0.3 0 1.1-0.7 0.5-1z"/>
				<path id="&lt;Path&gt;" class="s5" d="m838.1 595.3c-0.4 0-1 0.9-0.4 0.9 0.4 0 1-0.9 0.4-0.9z"/>
				<path id="&lt;Path&gt;" class="s5" d="m845.3 605.6c-0.3-0.5-0.6-0.4-1.1-0.6-1-0.4-2.3 1.2-2 2.1q0 0 0 0c-0.1 0.6 0 1.1 0.5 1.5 0.4 0.3 0.9 0.2 1.3 0 0.8-0.5 1.3-0.8 1.5-1.7 0.1-0.5 0.1-1-0.2-1.3z"/>
				<path id="&lt;Path&gt;" class="s5" d="m859.7 606.3q0-0.1 0-0.2c-0.1-0.3-0.5-0.4-0.8-0.5-1-0.1-1.8 0.3-2.7 0.5-0.7 0.1-2.4 2-1.2 2.3 0.5 0.1 1 0.5 1.6 0.5 0.9 0 1.5-0.2 2.2-0.7 0.6-0.5 1.2-1.1 0.9-1.9z"/>
				<path id="&lt;Path&gt;" class="s5" d="m652 491.8c-0.6-1-1.8-0.7-2.4 0.1q0.1-0.1 0 0c-0.4 0.6-1 1.5-0.5 2.1l0.1 0.2c0.9 1.1 3.4-1.3 2.8-2.4z"/>
				<path id="&lt;Path&gt;" class="s5" d="m677.9 539c-0.6-0.4-1.1-0.4-1.7-0.4-0.4 0-1 0.5-1 0.9 0.1 0.6 0.3 0.9 0.5 1.4 0.1 0.7 1.1 0.3 1.5 0 0.3-0.3 1.4-1.5 0.7-1.9z"/>
				<path id="&lt;Path&gt;" class="s5" d="m672.9 509.2c0.3-1.5-2.5-0.3-2 1 0.2 0.5 0.7 0.7 1.2 0.9 0.3 0.2 0.7-0.3 0.7-0.7-0.1-0.5 0-0.7 0.1-1.2z"/>
				<path id="&lt;Path&gt;" class="s5" d="m660.8 512.5q0 0 0 0.1c-0.2-0.4-0.8-0.1-1 0.1-0.4 0.3-0.7 0.7-0.8 1.2-0.3 0.7 0.5 0.9 1.1 0.7 0.5-0.3 0.8-0.7 1-1.3 0.1-0.2 0-0.7-0.3-0.8z"/>
				<path id="&lt;Path&gt;" class="s5" d="m670.9 517.6c0 0-0.7 0.4-0.4 0.3-0.5 0.1-1 0.5-1.3 0.8-0.3 0.2-0.7 0.7-0.5 1 0.9 2.2 3.6-0.2 3.7-1.8 0-0.9-1.1-0.5-1.5-0.3z"/>
				<path id="&lt;Path&gt;" class="s5" d="m668 526.8c-0.5-0.4-1.5-0.1-2.1 0.4-0.7 0.5-1.3 1.2-1.5 2-0.1 0.5-0.1 1.4 0.6 1.5 1.7 0.4 3.1-1 3.7-2.5 0.4-0.8 0-1.4-0.7-1.4z"/>
				<path id="&lt;Path&gt;" class="s5" d="m660.2 521.4c-0.2-0.1-0.3-0.2-0.5-0.4-0.1 0-0.9-0.2-0.6-0.1-0.8-0.4-1.8 1-1.7 1.8q0 0 0 0.1c0 0.3 0.3 0.7 0.7 0.6 0.5 0 0.8-0.2 1.3-0.4 0.4-0.1 1.3-1.1 0.8-1.6z"/>
				<path id="&lt;Path&gt;" class="s5" d="m751.6 589.6q-0.3 0-0.6 0.1c-0.3 0-1.1 1-0.5 1.1q0.2 0 0.5 0.1c0.7 0.1 1.3-1.4 0.6-1.3z"/>
				<path id="&lt;Path&gt;" class="s5" d="m762.7 582.9c-1-1.1-2.7 0.7-3.1 1.5-0.3 0.5-0.4 0.9-0.4 1.4-0.1 0.3 0.3 0.7 0.6 0.6 0.5 0 0.9-0.1 1.4-0.3 0.8-0.5 2.6-2.2 1.5-3.2z"/>
				<path id="&lt;Path&gt;" class="s5" d="m651.9 381.1c-0.1 0-0.2 0.2-0.1 0.2 0.1 0 0.2-0.2 0.1-0.2z"/>
				<path id="&lt;Path&gt;" class="s5" d="m656.4 387.8c-0.2-1.2-0.9-1.6-2-1.3-0.8 0.1-1.4 0.3-1.9 0.9-0.4 0.6-0.8 1.1-1.2 1.8-0.7 1.4-0.1 3.1 1.8 2.6 1.4-0.3 3.6-2.2 3.3-3.9q0-0.1 0-0.2z"/>
				<path id="&lt;Path&gt;" class="s5" d="m649 388.4c-0.1-0.1-0.1 0-0.1-0.1-0.1-0.9-2.5 0.1-2 1.4 0.2 0.6 0.7 0.5 1.3 0.4 0.4-0.1 1.7-1.5 0.8-1.7z"/>
				<path id="&lt;Path&gt;" class="s5" d="m868.4 375.6c-0.1 0-0.2 0.2-0.1 0.2 0.1 0 0.2-0.2 0.1-0.2z"/>
				<path id="&lt;Path&gt;" class="s5" d="m866.9 375.5q-0.1 0-0.1-0.1c-0.2-0.4-0.8 0.2-0.8 0.4-0.2 0.6-0.6 1 0 1.4 0.3 0.1 0.6-0.2 0.7-0.3 0.2-0.4 0.4-0.6 0.4-1 0-0.2-0.1-0.3-0.2-0.4z"/>
				<path id="&lt;Path&gt;" class="s5" d="m868.5 381.2c0-0.4-0.2-0.7-0.6-0.6-0.2 0-0.5-0.1-0.7-0.1-0.5-0.1-1.5 1.1-0.9 1.4q-0.1 0.3-0.1 0.7c0 1.4 2.5 0 2.4-1.2q0-0.1-0.1-0.2z"/>
				<path id="&lt;Path&gt;" class="s5" d="m981.2 368.4c-0.3-0.2-0.9 0.4-0.6 0.6 0.4 0.6 0.8 2 1.6 2 0.2 0 0.4-0.2 0.4-0.4 0.1-0.8-0.9-1.7-1.4-2.2z"/>
				<path id="&lt;Path&gt;" class="s5" d="m991 377.4c-1.2 0-2.9 2.6-1.3 2.6 1.2 0 2.9-2.6 1.3-2.6z"/>
				<path id="&lt;Path&gt;" class="s5" d="m989 386.5c-0.3 0.1-0.7 0.1-1 0.4l-0.1 0.2c-0.4 0.4-0.9 1-0.4 1.5 0.1 0.2 0.2 0.2 0.3 0.3 0.7 0.4 1.7-0.6 1.9-1.2 0.4-0.6 0.1-1.3-0.7-1.2z"/>
				<path id="&lt;Path&gt;" class="s5" d="m986.9 381.3c0.3-1.5-2.5-0.5-2 1 0 0.3 0.1 0.3 0.4 0.5 0.4 0.2 0.8-0.1 1-0.4q-0.1 0-0.2 0.1 0.3-0.2 0.5-0.5c0.2-0.2 0.2-0.5 0.3-0.7z"/>
			</g>
			<g id="&lt;Group&gt;">
				<path id="&lt;Path&gt;" class="s3" d="m893.8 834.4c0 2.2-1.8 4-4 4h-147.3c-2.2 0-4-1.8-4-4v-4c0-2.2 1.8-4 4-4h147.3c2.2 0 4 1.8 4 4z"/>
			</g>
			<g id="&lt;Group&gt;">
				<g id="&lt;Group&gt;">
					<path id="&lt;Path&gt;" class="s6" d="m1394.4 834.4c0 2.2-1.8 4-4 4h-299.5c-2.2 0-4-1.8-4-4v-4c0-2.2 1.8-4 4-4h299.5c2.2 0 4 1.8 4 4z"/>
				</g>
				<g id="&lt;Group&gt;">
					<g id="&lt;Group&gt;">
						<path id="&lt;Path&gt;" class="s7" d="m817.4 421.5l269-169.3"/>
						<path id="&lt;Path&gt;" class="s3" d="m836.8 427.8l-25.7-0.7 10.7-24.7z"/>
						<path id="&lt;Path&gt;" class="s5" d="m822.7 434.3l-11.6 5.1-10.8-24.7 11.6-5.1z"/>
						<path id="&lt;Path&gt;" class="s7" d="m1088.5 229.8l-2.1 22.4 19.7 6.6"/>
						<path id="&lt;Path&gt;" class="s7" d="m1078.3 235.7l-2.1 22.4 19.7 6.7"/>
					</g>
					<g id="&lt;Group&gt;">
						<g id="&lt;Group&gt;">
							<path id="&lt;Path&gt;" class="s8" d="m1356.5 715.8c-1.3 8.4-2.4 93.4 0 101.5 1.1 3.3 3.2 7.5 1.6 10.9-1.9 3.8-6.7 4.4-10.4 5-3.9 0.5-19.9 4.3-20.6-1.1-0.5-4.3 7.7-9.4 9.7-12.3 2.8-3.8-24.6-107.8-26.4-111.9"/>
						</g>
						<g id="&lt;Group&gt;">
							<path id="&lt;Path&gt;" class="s3" d="m1337.7 818.3q-0.4 0.7-0.9 1.5c-2 2.9-10.2 8-9.7 12.3 0.7 5.4 16.7 1.6 20.6 1.1 3.7-0.6 8.5-1.2 10.4-5 1.6-3.4-0.5-7.6-1.6-10.9q-0.1-0.5-0.3-0.9c0 0-4.6 3.1-9.6 3.8-5 0.8-6.4-4.7-8.9-1.9z"/>
						</g>
						<g id="&lt;Group&gt;">
							<path id="&lt;Path&gt;" class="s8" d="m1202.3 715.3c-2 8.3-10.4 92.8-8.8 101.1 0.9 3.4 2.6 7.7 0.7 11-2.2 3.7-7.1 3.9-10.8 4.1-4 0.2-20.2 2.6-20.4-2.9-0.2-4.3 8.4-8.7 10.6-11.4 3.2-3.6-15.1-109.5-16.5-113.8"/>
						</g>
						<g id="&lt;Group&gt;">
							<path id="&lt;Path&gt;" class="s3" d="m1174.7 815.8q-0.4 0.7-1.1 1.4c-2.2 2.7-10.8 7.1-10.6 11.4 0.2 5.5 16.4 3.1 20.4 2.9 3.7-0.2 8.6-0.4 10.8-4.1 1.9-3.3 0.2-7.6-0.7-11q-0.1-0.5-0.2-0.9c0 0-4.9 2.6-9.9 3-5.1 0.3-6-5.3-8.7-2.7z"/>
						</g>
						<g id="&lt;Group&gt;">
							<path id="&lt;Path&gt;" class="s8" d="m1261.4 230.2c-3.3-2-11.3-14.3-9.2-35.6 2.4-23.8-37.5-26.5-34.7 0.7 0.6 6.3 4.5 26 13.9 20.1 2.7 9.8 4.3 13.4 1.5 22.9 0 0 26.4-7.5 28.5-8.1z"/>
						</g>
						<path id="&lt;Path&gt;" class="s9" d="m1233.7 472.8c-3 9.4-25.6 100.9-27.6 119.8-2 19 28.6 200.1 27.6 210.8-1 10.7-93 8.3-94 3.3-1-5-6.6-195-5.6-219 1-24 47.6-225.2 47.6-225.2l141 4.9c0 0 21.1 207.6 22.1 233.6 1 26 39.9 188.7 39.9 202.7 0 14-96 10.4-96-1.3 0-11.7-15.6-178.4-14.6-201.4 1-23-40.4-128.3-40.4-128.3z"/>
						<g id="&lt;Group&gt;">
							<path id="&lt;Path&gt;" class="s8" d="m1082 279.7c-6.5-0.6-8.8-9.5-10.5-14.3-3.1-9.2-11.8-6-17.1-2.7-4.4 2.7-7.9 7.2-6.9 12.9 2.4-1.7 9.6-6.1 10.9-4.9 2.1 2-2.5 7.7-1 11.4 3.1 7.8 12 11.8 19 15.1"/>
						</g>
						<g id="&lt;Group&gt;">
							<path id="&lt;Path&gt;" class="s8" d="m1058.5 284.2c-1.8-3.5-3-3.3-7.1-3-1.7 0-10 2.9-9.9 0.4 0.4-3.5 7.7-5.8 10.1-6.3 3.6-0.8 9.9-2.9 5.4-6.7 0 0 4-2.7 4.5-3.2 0.5-0.5 4.5 10.2 4.5 10.2z"/>
						</g>
						<g id="&lt;Group&gt;">
							<path id="&lt;Path&gt;" class="s4" d="m1235.4 196.1c0.3-1.1 1.8-2.9 3.5-2.5 3.3 0.8 1.9 7-1.1 7.5 5.2-0.9 10.6 4.6 14.9 7 6.5 3.8 13-1.7 15.1-8 1.2-3.6 0.7-6.2-2.4-8.7 4.4-5.5-1.7-17.1-9-14.1-3-9.2-13.6-12.9-22.1-8.6-2.6 1.4-4.2 3.2-5.7 5.9-6.5-4.5-15.8 7.2-10.6 12.5 5.8-6.6 15.9-3.8 16.7 5 0.2 1.2-0.1 2.8 0.7 3.6"/>
						</g>
						<path id="&lt;Path&gt;" class="s10" d="m1233.7 472.8l-6.1-13.6-16.1 91.6c0 0 19.7-65.3 22.2-78.1z"/>
						<g id="&lt;Group&gt;">
							<path id="&lt;Path&gt;" class="s11" d="m1260.5 270.1c-34.1 53.7-130.2 74.6-184 37-14-9.8 5.2-37.5 13.9-32.9 45.3 24 123.3 15.7 159.1-43.6"/>
						</g>
						<g id="&lt;Group&gt;">
							<path id="&lt;Path&gt;" class="s3" d="m1169.3 310.6c-12.2 1.8-21.2 8.3-20.3 14.5q0.1 0.5 0.2 1c14.8-0.6 29.6-3.3 43.7-7.8-1-6.1-11.6-9.6-23.6-7.7z"/>
						</g>
						<g id="&lt;Group&gt;">
							<path id="&lt;Path&gt;" class="s12" d="m1181.7 362.5c-0.3 8 66.5 40.2 141 4.9-2.9-41.2-13.5-85-36.2-126.2-18.1-33-53.2-25.9-77.5 9.5-20.1 29.5-26 81.7-27.3 111.8z"/>
						</g>
						<path id="&lt;Path&gt;" class="s10" d="m1301.8 273.8c0 0-13.5-4.7-50.4-13.2 0 0 53.3 12.9 57.1 31.9z"/>
						<path id="&lt;Path&gt;" class="s13" d="m1305.1 374.5c0 0 13.9 199.2 15.6 215.2 1.7 16 45.2 221.9 45.2 221.9"/>
						<path id="&lt;Path&gt;" class="s13" d="m1299.9 376.2c0 0 12.5 203.5 13.1 216.9 0.7 13.3 45.7 219.7 45.7 219.7"/>
						<g id="&lt;Group&gt;">
							<path id="&lt;Path&gt;" class="s8" d="m1287 414c-7.1 3.8-15.9-7.4-21.7-0.2-3.2 4-7.7 11-7.7 16.1 0.1 5.6 5.3 11.6 11.1 12 3.8 0.4 7.6-1.4 11-2.6 5.1-1.8 10.3-3 15.5-4.2"/>
						</g>
						<g id="&lt;Group&gt;">
							<path id="&lt;Path&gt;" class="s12" d="m1287.3 446.8c52.7 8.3 107.3-43.9 107.1-100.9-0.3-64.5-61.3-113.3-118.7-115.3l9.9 40.6c44.1 1.6 72.2 46.1 72.3 74.3 0.2 36-34.3 68.8-67.5 63.6-20.7-1.9-20 37-3.1 37.7z"/>
						</g>
						<g id="&lt;Group&gt;">
							<path id="&lt;Path&gt;" class="s11" d="m1373 357.9c-2.3 14.4 3 27.3 11.8 29.7 6.1-13 9.7-27.2 9.6-41.7q0-6.5-0.9-12.8c-9.2-0.7-18.3 10.1-20.5 24.8z"/>
						</g>
					</g>
				</g>
			</g>
			<g id="&lt;Group&gt;">
				<g id="&lt;Group&gt;">
					<path id="&lt;Path&gt;" class="s14" d="m422.2 364.4l-112 470.3z"/>
					<path id="&lt;Path&gt;" class="s14" d="m465.2 834.7l-43-470.3"/>
					<g id="&lt;Group&gt;">
						<path id="&lt;Path&gt;" class="s3" d="m578.2 834.4c0 2.2-1.8 4-4 4h-458.2c-2.2 0-4-1.8-4-4v-4c0-2.2 1.8-4 4-4h458.2c2.2 0 4 1.8 4 4z"/>
					</g>
					<path id="&lt;Path&gt;" class="s15" d="m441.5 666.3h-94.6l70.6-301.9h94.7z"/>
					<path id="&lt;Path&gt;" class="s14" d="m512.2 364.4l-112 470.3z"/>
					<path id="&lt;Path&gt;" class="s14" d="m555.2 834.7l-43-470.3"/>
				</g>
				<g id="&lt;Group&gt;">
					<path id="&lt;Path&gt;" class="s16" d="m449.6 412.2l2 7.9 33.7-21.9"/>
					<path id="&lt;Path&gt;" class="s16" d="m438.3 476.5l2 7.9 33.7-21.9"/>
					<path id="&lt;Path&gt;" class="s6" d="m489.6 380.3h-68.7l1.8-7.4h68.7z"/>
					<path id="&lt;Path&gt;" class="s6" d="m465.6 390.2h-46.7l1.8-7.5h46.7z"/>
					<path id="&lt;Path&gt;" class="s6" d="m463.4 399.9h-46.7l1.8-7.4h46.7z"/>
					<path id="&lt;Path&gt;" class="s6" d="m475.4 444.1h-68.7l1.8-7.4h68.7z"/>
					<path id="&lt;Path&gt;" class="s6" d="m451.4 453.9h-46.7l1.8-7.4h46.7z"/>
					<path id="&lt;Path&gt;" class="s6" d="m449.1 463.7h-46.7l1.9-7.5h46.7z"/>
					<path id="&lt;Path&gt;" class="s6" d="m462.3 503.8h-68.7l1.8-7.4h68.7z"/>
					<path id="&lt;Path&gt;" class="s6" d="m438.3 513.7h-46.7l1.8-7.4h46.7z"/>
					<path id="&lt;Path&gt;" class="s6" d="m436 523.4h-46.7l1.8-7.4h46.7z"/>
				</g>
			</g>
			<g id="&lt;Group&gt;">
				<g id="&lt;Group&gt;">
					<path id="&lt;Path&gt;" class="s3" d="m678.7 885.7c2 4.7 0.6 11.4-0.3 16.5-0.8 4.4-4.7 10.3-2.8 14.7 1.4 3.1 9.2 10.9 12.9 9.8 4.4-1.1 9.7-8.9 9.5-13.4-0.6-3.6-2.6-7.2-3.9-10.6-2-5.8-3.1-12.3-4.2-18.1"/>
				</g>
				<g id="&lt;Group&gt;">
					<path id="&lt;Path&gt;" class="s3" d="m577.8 885.7c-1.9 4.7-0.5 11.4 0.3 16.5 0.9 4.4 4.8 10.3 2.8 14.7-1.4 3.1-9.2 10.9-12.8 9.8-4.5-1.1-9.8-8.9-9.5-13.4 0.5-3.6 2.5-7.2 3.9-10.6 1.9-5.8 3.1-12.3 4.2-18.1"/>
				</g>
				<path id="&lt;Path&gt;" class="s11" d="m655.3 472.9h-79.5l19.4-114.3h60.1z"/>
				<path id="&lt;Path&gt;" class="s17" d="m694 484.1c0 0 12.6 193.8 16.5 216.6 3.8 22.9 17.6 143.7 18.5 176.2 1 32.5-93.3 36.6-91.3 8.8 2.1-28.6 7.9-167.4 6.9-189.2-0.9-21.7-17.8-93.6-22-94.9-4.1-1.3-20.7 77.7-21.6 99.2-0.9 21.6 13.6 167.2 10.7 186.1-2.9 18.8-91.7 21.4-93.3 0-1.6-21.5 17.8-182.8 19.7-208.5 1.9-25.6 12.6-194.3 12.6-194.3z"/>
				<g id="&lt;Group&gt;">
					<path id="&lt;Path&gt;" class="s9" d="m550.7 484.1c-7.8-45.2 11.2-133.2 44.5-162.4 72.7-63.4 111.2 105.2 98.8 162.4 0 0-23.1 18.9-67.7 19.2-50 0.4-75.6-19.2-75.6-19.2z"/>
				</g>
				<g id="&lt;Group&gt;">
					<path id="&lt;Path&gt;" class="s9" d="m609.4 340.6c-23.2 2.3-61.2-3.1-78.4 25.2-20.6 34.1 23.3 50.6 46.1 52.1 12.3 0.8 7.2 37.6 1.7 37.4-23.3-0.6-44-6.9-63.7-22-67.8-52.3 5.8-145.6 113-125.5"/>
				</g>
				<g id="&lt;Group&gt;">
					<path id="&lt;Path&gt;" class="s9" d="m647.1 347.5c21.8 10.6 58.8 31.8 68.9 65.1 12.1 40-24.9 36.3-47.2 29.6-11.9-3.6-15.3 33.5-10 35.3 22.4 7.7 43.7 9.1 66 1.6 76.7-25.8 7.1-151.1-88.2-169.7"/>
				</g>
				<g id="&lt;Group&gt;">
					<path id="&lt;Path&gt;" class="s8" d="m620.5 287.3c3.8 5.5 0.8 15.3-2.4 19.1-3.2 3.7 23.1 8.2 22.5 3.8-0.7-4.4-2.5-13.4 3.1-19.5"/>
					<path id="&lt;Path&gt;" class="s8" d="m654 278.9c-0.4 2.3-2.6 5-4.7 4.6-2.1-0.4-3.4-2.6-3-4.9 0.5-2.4 2.5-4 4.6-3.6 2 0.4 3.5 1.5 3.1 3.9z"/>
					<path id="&lt;Path&gt;" class="s8" d="m616.6 272c-0.4 2.4 0.7 5.7 2.8 6.1 2.1 0.3 4.1-1.3 4.5-3.6 0.4-2.4-0.9-4.6-3-5-2-0.3-3.9 0.2-4.3 2.5z"/>
					<path id="&lt;Path&gt;" class="s8" d="m613 305.8c0 0 7.3 4.7 16.2 6.2 8.9 1.5 16.3-0.5 16.3-0.5 0 0-18.2-4.4-32.5-5.7z"/>
					<path id="&lt;Path&gt;" class="s8" d="m651 273.9c-1.5 8.2-9.4 13.7-17.7 12.2-8.2-1.5-13.7-9.4-12.2-17.6 1.5-8.3 9.4-13.7 17.7-12.2 8.2 1.5 13.7 9.4 12.2 17.6z"/>
					<path id="&lt;Path&gt;" class="s8" d="m651 273.9c-1.7 9.1-1.3 14.3-4.1 16.3-2.8 2-9.9 8.7-15.7 7.6-5.8-1-10.1-9.8-12-12.6-1.9-2.9 0.3-7.7 1.9-16.7"/>
				</g>
				<g id="&lt;Group&gt;">
					<path id="&lt;Path&gt;" class="s3" d="m495.7 358.9c-9.1 18-9.4 38.1 2.1 56 3.2-4.7 5.4-15 5.4-26.9 0-14.5-3.2-26.5-7.5-29.1z"/>
				</g>
				<g id="&lt;Group&gt;">
					<path id="&lt;Path&gt;" class="s3" d="m742 448.5c-6.2 9.8-7.7 20.1-4 24.3 13.6-8.9 19.6-22.5 19.6-38.1-5 1.5-11 6.5-15.6 13.8z"/>
				</g>
				<g id="&lt;Group&gt;">
					<path id="&lt;Path&gt;" class="s18" d="m620.9 269.5c-0.3 2-0.1 3.3 0 5.2 0.5 6.7 8.4 9.2 11 15.2-0.3-0.7 8.4-3.3 8.9-3.4 4.8-1.1 7.2-3.1 9.1-7.7 2.2-5.2 4.7-14.2 1.4-19.3-2.5-3.9-6.5-5.9-10.9-4-1.5-4.7-7.3-3.2-10.6-1.4-3.6 2-6.6 6.5-7.7 10.4-0.5 1.4-0.8 3.5-1.2 5z"/>
				</g>
				<path id="&lt;Path&gt;" class="s19" d="m641.8 522.8c0 0 32.2-3.1 43-8.8 0 0 8 42.8-17.7 49-25.8 6.3-25.3-40.2-25.3-40.2z"/>
				<path id="&lt;Path&gt;" class="s19" d="m641.8 530.8c0 0 24.1-0.5 44.2-9"/>
				<path id="&lt;Path&gt;" class="s19" d="m606.3 522.8c0 0-32.2-3.1-43-8.8 0 0-8 42.8 17.8 49 25.7 6.3 25.2-40.2 25.2-40.2z"/>
				<path id="&lt;Path&gt;" class="s19" d="m606.3 530.8c0 0-24.1-0.5-44.1-9"/>
				<path id="&lt;Path&gt;" class="s10" d="m696 446.4c0 0 5.9 37.7 21.5 34.9 0 0-12.4 3.3-23.5 2.8 0 0 3.3-21.8 2-37.7z"/>
				<path id="&lt;Path&gt;" class="s10" d="m554 412.7c0 0-4.5 27.3-4.8 38.2 0 0-11.5-3.8-16.5-6.5 0 0 9.9 2.3 21.3-31.7z"/>
			</g>
			<g id="&lt;Group&gt;">
				<path id="&lt;Path&gt;" class="s20" d="m397.8 464.7l21.7 8.3"/>
				<g id="&lt;Group&gt;">
					<path id="&lt;Path&gt;" class="s18" d="m376.8 479.7c6.4-3.5 5.7-12 10.7-16.8 3-2.8 9.2-7.1 11.2-1.3 0.8 2.8 1 6.3 1.7 9.1 0.4 2.1 1.3 4 0.2 6-1.1 1.9-3.7 3.4-5 4.9-1.5 1.9-3 3.9-4.7 5.6"/>
				</g>
				<path id="&lt;Path&gt;" class="s20" d="m374.5 455.9l19.5 7.4"/>
				<g id="&lt;Group&gt;">
					<path id="&lt;Path&gt;" class="s11" d="m212 470.1c11.7 24.3 26.1 40.2 52.7 48 46 13.6 80.2-2.8 109.3-40.1 4.7-6 27.7 9.6 22.3 17.1-40 56.4-127.1 82.6-176.8 32.9"/>
				</g>
				<g id="&lt;Group&gt;">
					<path id="&lt;Path&gt;" class="s21" d="m306.9 542.5c-11.6 1.9-20.4 7.1-19.6 11.6q0 0.1 0 0.2c13.9-0.3 27.9-3.1 41.5-8.1-2.1-3.7-11.3-5.4-21.9-3.7z"/>
				</g>
				<g id="&lt;Group&gt;">
					<path id="&lt;Path&gt;" class="s18" d="m238.3 741.3c-6.3 5.9-76.9 54.5-85 56.9-3.5 0.8-8.2 1.3-10.1 4.7-2.1 3.8 0.2 8.6 1.9 12.2 1.8 3.8 8.1 20.4 13 17.9 3.9-1.8 3.4-12.1 4.6-15.5 1.6-4.7 104.7-38.3 109.3-39"/>
				</g>
				<g id="&lt;Group&gt;">
					<path id="&lt;Path&gt;" class="s3" d="m163.5 815.7q-0.4 0.8-0.8 1.8c-1.2 3.4-0.7 13.7-4.6 15.5-4.9 2.5-11.2-14.1-13-17.9-1.7-3.6-4-8.4-1.9-12.2 1.9-3.4 6.6-3.9 10.1-4.7q0.4-0.1 0.9-0.3c0 0 0.1 6 2.4 10.9 2.3 5 7.8 3.2 6.9 6.9z"/>
				</g>
				<g id="&lt;Group&gt;">
					<path id="&lt;Path&gt;" class="s18" d="m253.5 444.5c-4-0.2-7-8.5-8.8-11.3-5.1-8-19.4 2.2-18 10.3 0.8 4.6 5.3 6.1 8.9 3.4 2.8 3.3 4.8 7.1 5.2 11.5"/>
				</g>
				<g id="&lt;Group&gt;">
					<path id="&lt;Path&gt;" class="s18" d="m189.9 453.1c2.8-6.7 4.7-13.9 7.3-20.6 1.7-4.5-0.9-9.8-2.8-16.2-1.8-5.9-1.4-17 8.1-19.2 13.9-3.3 24.2 10.3 21.5 24.2-0.6 4.5-4 20.1-11.2 14 0 3.9-0.6 8.9 3.9 11.1"/>
				</g>
				<g id="&lt;Group&gt;">
					<path id="&lt;Path&gt;" class="s12" d="m106.2 616.6c5.8-81.8 108.7-261.4 137.7-120.3 5.8 24.7 9.4 106.7 3.5 131.4"/>
				</g>
				<path id="&lt;Path&gt;" class="s4" d="m213.3 838.6c0 0 200.8-137.7 204.5-202.4 3.7-64.7-311.6-19.6-311.6-19.6 0 0-23.9 48.2 24.8 80.6 47.3 31.4 175.5-32.7 175.5-24.9 0 7.8-143.8 67.3-159.1 73.8-15.3 6.6 53.5 103.7 65.9 92.5z"/>
				<g id="&lt;Group&gt;">
					<path id="&lt;Path&gt;" class="s3" d="m209.2 419.4c-0.3-1-2.7-2.2-3.8-1.2-1.8 1.8 0.7 7.7 2.8 5.5-0.5 2.2-4.1 0.1-6.2 0-1.9 0-3.4 1-3.9 3-2.3 9.5-21.4 3.6-17.6-6.8 0.6-1.7 2-2.7 3.4-3.4-3 0.2-5.8-3.8-5.9-6.4-0.3-5.4 2.8-8.7 7.9-8.7-1.8-5.7 0.1-10.7 5.2-13.5 6-3.3 12.5-3.5 18.4 0.1 2.4 1.4 3.6 3.1 4.4 5.7 7.5-4.8 15.2 6.4 12.5 13.3-0.5 1.5-1.6 2.5-2.9 3.5-3.2-6.3-15.6-4.8-15.9 2.9-0.1 0.8 0 2.8 0.5 3.5z"/>
				</g>
				<g id="&lt;Group&gt;">
					<path id="&lt;Path&gt;" class="s18" d="m243.4 433.8c-1.6-2.8-6.5-4.4-9.3-5.6-2.4-1-5.9-2.4-8.7-1.6-4.8 1.4 1 3.6 3 4.2 4.7 1 9.1 2.8 13.8 3.4"/>
				</g>
				<path id="&lt;Path&gt;" class="s10" d="m184.7 478c0 0-12.7 58 2.8 85.6 15.5 27.5 43.3 31.5 62.9 32v-16.5c0 0-50.9-16.9-51.9-38.4-1-21.6-4.5-60.2-4.5-60.2z"/>
				<g id="&lt;Group&gt;">
					<path id="&lt;Path&gt;" class="s12" d="m217 468.2c-3 25.4-9.8 59.8 10.9 79.6 13.6 12.9 36.8 10.1 43.4-9 10.1-29.1-9.6-61.4-36.4-79-3.1-2.1 11.5-22.8 16.6-19.7 44.8 27 65.9 90.4 32.4 130.7-15.2 18.4-39.4 18.5-61.5 9.5-41-16.6-44.1-76.5-35.8-112.1"/>
				</g>
				<path id="&lt;Path&gt;" class="s10" d="m300.4 677.4l45.8-30.3c0 0-59.4 28.4-95.8 42.2 0 0 13.7-4.5 27.6-9.3 18.9-6.5 38-12.9 22.4-2.6z"/>
				<path id="&lt;Path&gt;" class="s13" d="m175.9 807.1c0 0 200.3-143.4 204.6-164.4 4.3-21-208.5 32.4-238.5 19.4-16.1-7-17-34.4-17-34.4"/>
				<g id="&lt;Group&gt;">
					<path id="&lt;Path&gt;" class="s21" d="m261.2 570.2c-10.2 4-17.3 10.8-16.5 15.7 14.8 1.3 29-2.8 39.2-15.1q0.1-0.1 0.3-0.2c-2.7-4.3-12.6-4.5-23-0.4z"/>
				</g>
			</g>
			<g id="&lt;Group&gt;">
				<g id="&lt;Group&gt;">
					<g id="&lt;Group&gt;">
						<path id="&lt;Path&gt;" class="s9" d="m1112.8 901.6h-57.6c-2.2 0-4.1-1.8-4.4-4l-8.5-83.1c-0.2-2.2 1.4-4 3.6-4h76.2"/>
					</g>
					<path id="&lt;Path&gt;" class="s18" d="m1044.5 810.5c0-15.1 74.1-13.8 74.1 0z"/>
				</g>
				<path id="&lt;Path&gt;" class="s2" d="m1032.8 593.8l37.5 211.8 43.9-0.4 46.5-211.4z"/>
				<path id="&lt;Path&gt;" class="s1" d="m1161.2 585.9c0 35.6-28.9 64.5-64.5 64.5-35.6 0-64.4-28.9-64.4-64.5 0-35.6 28.8-64.5 64.4-64.5 35.6 0 64.5 28.9 64.5 64.5z"/>
				<path id="&lt;Path&gt;" class="s2" d="m973.6 703.1l81.3 102.9 15.4-0.4-40.3-137.8"/>
				<path id="&lt;Path&gt;" class="s1" d="m1033.6 682.8c0 18.5-15 33.4-33.4 33.4-18.5 0-33.4-14.9-33.4-33.4 0-18.4 14.9-33.4 33.4-33.4 18.4 0 33.4 15 33.4 33.4z"/>
				<path id="&lt;Path&gt;" class="s1" d="m1120.7 703.5c-0.6-0.2-1.1 0.2-1.5 0.5q0 0.1 0 0.1c-0.4 0.3-1 1-0.4 1.2q-0.1 0.1-0.1 0.2c0.3 1.1 2-0.4 2.2-0.8 0.2-0.4 0.3-1-0.2-1.2z"/>
				<path id="&lt;Path&gt;" class="s1" d="m1124.3 698.3c-0.1-0.2-0.3-0.2-0.4-0.2-1.5-0.1-1.3 1.9-1.1 2.8 0.2 0.7 1.3-0.3 1.4-0.7 0.1-0.6 0.3-1.2 0.1-1.9z"/>
				<path id="&lt;Path&gt;" class="s1" d="m1120.1 694.6c-0.2-0.1-0.4 0.1-0.5 0.2-0.2 0.3-0.2 0.6-0.2 1 0 0.4 0.9 0 0.9-0.5 0-0.2 0-0.6-0.2-0.7z"/>
				<path id="&lt;Path&gt;" class="s1" d="m1126.8 688.1c-0.2-0.2-0.3-0.3-0.4-0.5-0.4-0.2-0.8-0.1-1.1 0.1q-0.3 0.2-0.5 0.5-0.2 0.2-0.2 0.5c-0.3 0.5-0.4 1 0.2 1.1 0.7 0.1 1.3-0.2 1.7-0.7 0.2-0.3 0.4-0.7 0.3-1z"/>
				<path id="&lt;Path&gt;" class="s1" d="m1119.9 700c-0.2-2.5-3.4-0.7-4.2 0.5q0 0.1-0.1 0.2c-0.6 1-1.3 3.2 0.6 3.2 1.7 0 3.9-2 3.8-3.7q-0.1-0.1-0.1-0.2z"/>
				<path id="&lt;Path&gt;" class="s1" d="m1118.6 688.1c-0.9 0.4-1.7 1.4-1.5 2.4q0.1 0.2 0.1 0.4c0.1 0.7 1.1 0.5 1.5 0.3 0.6-0.3 1.3-1 1.4-1.7q0-0.2 0.1-0.4c0.1-1-0.7-1.4-1.6-1z"/>
				<path id="&lt;Path&gt;" class="s1" d="m1126.7 696.8c-0.2 0-0.4 0-0.7 0.1-0.2 0-1 0.8-0.4 0.9 0.2 0.1 0.4 0.2 0.6 0.1 0.5 0 1.3-1.1 0.5-1.1z"/>
				<path id="&lt;Path&gt;" class="s1" d="m1077.1 766.9c-1.2 0-2.3 1.1-2.8 2.1-0.4 0.8-0.3 2.1 0.8 2.1 1.2 0 2.4-1.1 2.9-2.1 0.3-0.8 0.3-2.1-0.9-2.1z"/>
				<path id="&lt;Path&gt;" class="s1" d="m1075.2 761.7c-1.1 0-2.1 0.9-2.5 1.8-0.3 0.7-0.3 1.9 0.7 1.9 1.1 0 2.1-0.9 2.5-1.8 0.4-0.8 0.3-1.9-0.7-1.9z"/>
				<path id="&lt;Path&gt;" class="s1" d="m1082.5 758.6c-1.1 0-2.1 0.9-2.6 1.9-0.3 0.7-0.3 1.9 0.8 1.9 1.1 0 2.1-0.9 2.6-1.9 0.3-0.7 0.3-1.9-0.8-1.9z"/>
				<path id="&lt;Path&gt;" class="s1" d="m1081.6 765.9c-0.1-0.1-0.1-0.2-0.1-0.3-0.1-0.6-1 0.2-1 0.5-0.1 0.1-0.1 0.3-0.1 0.4-0.7 1.4 2.1 0.3 1.2-0.6z"/>
				<path id="&lt;Path&gt;" class="s1" d="m1078.4 752.3c-0.1-0.3-0.2-0.4-0.5-0.5-1.4-0.6-3.7 2.5-2.2 3q0 0 0 0c0.5 0.6 1.4-0.1 1.8-0.6 0.1-0.1 0.2-0.1 0.1 0q0-0.1 0-0.1c0.4-0.3 1.2-1.2 0.8-1.8z"/>
				<path id="&lt;Path&gt;" class="s1" d="m1089.2 774.3c-0.5 0.4-1 0.8-0.7 1.5 0.4 0.9 1.7-0.2 1.9-0.7 0.5-1-0.5-1.3-1.2-0.8z"/>
				<path id="&lt;Path&gt;" class="s1" d="m1086.7 779.4c-0.2-0.9-1.4 0-1.7 0.7q0 0.1 0 0.1c-0.5 0.8-0.3 1.8 0.9 1.3 0.6-0.3 1.6-1.5 0.8-2.1z"/>
				<path id="&lt;Path&gt;" class="s1" d="m1086.4 721.1c-0.6-0.2-1.1 0-1.6 0.3-0.5 0.1-0.9 0.6-1 1.1q0 0.1-0.1 0.2c-0.5 1.2 0.3 2 1.5 1.4 0.6-0.3 1.2-0.8 1.5-1.4 0.2-0.5 0.4-1.4-0.3-1.6z"/>
				<path id="&lt;Path&gt;" class="s1" d="m1094.3 722.3q-0.1 0-0.3 0c-1 0-2 0.9-2.4 1.8-0.3 0.6-0.3 1.8 0.7 1.7q0.2 0 0.3 0c1.1 0 2-0.8 2.4-1.7 0.4-0.7 0.3-1.7-0.7-1.8z"/>
				<path id="&lt;Path&gt;" class="s1" d="m1092.4 729.2c-0.9 0-2.2 1.9-1 1.9 0.9 0 2.2-1.9 1-1.9z"/>
				<path id="&lt;Path&gt;" class="s1" d="m1113.5 750.5q0 0.2-0.1 0.3c-1.3 2.1 0.1 3.5 2.2 2.2q0.1-0.1 0.2-0.2c3.8-2.3 0.1-6-2.3-2.3z"/>
				<path id="&lt;Path&gt;" class="s1" d="m1107.6 795.3c-2 0-4.9 4.4-2.2 4.4 2 0 4.9-4.4 2.2-4.4z"/>
				<path id="&lt;Path&gt;" class="s1" d="m1063.1 682.2c-1.7 0-4 3.6-1.8 3.6 1.6 0 4-3.6 1.8-3.6z"/>
				<path id="&lt;Path&gt;" class="s1" d="m1065.5 691.6c-0.5-0.5-1.3-0.2-1.8 0.2q0-0.1 0-0.1-0.1 0.1-0.1 0.1 0 0-0.1 0c-0.3 0.3-0.7 0.7-0.9 1.1-0.4 0.6-0.6 1.2-0.1 1.7q0.1 0.1 0.1 0.1 0.1 0 0.1 0.1c1 0.5 2.5-0.9 2.8-1.7 0.3-0.4 0.4-1.1 0-1.5z"/>
				<path id="&lt;Path&gt;" class="s1" d="m1073.3 685.7c-0.4-1.2-2.2-0.3-2.7 0.3q-0.3 0.3-0.6 0.6c-0.4 0.7-0.9 2 0.1 2.4 1.2 0.4 2.6-0.8 3-1.8 0.2-0.5 0.4-1 0.2-1.5z"/>
				<path id="&lt;Path&gt;" class="s1" d="m1069.1 682.9c-0.5 0-1.1 1-0.5 1 0.5 0 1.1-1 0.5-1z"/>
				<path id="&lt;Path&gt;" class="s1" d="m1135.2 656.6h-0.1c-1.2-0.9-2.7 0.3-3.5 1.3q0 0.1-0.1 0.1c-0.9 1.2-0.9 3.5 1.1 3 1-0.3 1.8-0.9 2.3-1.7 0.4-0.6 1.2-2.1 0.3-2.7z"/>
				<path id="&lt;Path&gt;" class="s1" d="m1130.5 664.4c-0.7 0-1.6 1.6-0.7 1.6 0.7 0 1.7-1.6 0.7-1.6z"/>
				<path id="&lt;Path&gt;" class="s1" d="m1059.8 648.5c-1.5 0-3 1.4-3.6 2.7-0.5 1-0.5 2.7 1 2.7 1.6 0 3.1-1.3 3.7-2.6 0.5-1.1 0.5-2.8-1.1-2.8z"/>
				<path id="&lt;Path&gt;" class="s1" d="m1068.2 653.6c-1.1 0-2.7 2.5-1.2 2.5 1.2 0 2.8-2.5 1.2-2.5z"/>
				<path id="&lt;Path&gt;" class="s1" d="m1068.6 661.8c-0.1-0.1-0.3-0.1-0.4-0.1-1.1-0.5-2.5 1-2.7 1.9-0.2 0.5-0.2 0.9 0 1.3 0.4 1.3 2.2 0.2 2.8-0.3 0.6-0.7 1.4-2.2 0.3-2.8z"/>
				<path id="&lt;Path&gt;" class="s1" d="m1101.5 672.7c-2 0-4.8 4.4-2.1 4.4 1.9 0 4.7-4.4 2.1-4.4z"/>
				<path id="&lt;Path&gt;" class="s1" d="m1032.5 709.1q-0.7 0.3-1.1 0.8c-0.5 0.6-1.4 1.8-0.7 2.5 0.8 0.7 2-0.1 2.5-0.6q0.5-0.5 0.8-1.1c0.7-1.3-0.3-2.2-1.5-1.6z"/>
				<path id="&lt;Path&gt;" class="s1" d="m1035.3 720.1c-0.3-0.6-0.7-0.8-1.4-0.8-0.9-0.1-1.8 0.8-2.2 1.6-0.3 0.5-0.4 0.5-0.5 1.2-0.1 0.7 0.1 1.6 1 1.6q0 0 0.1 0c0.8-0.1 1.5-0.5 2.1-1.1 0.5-0.5 1.4-1.7 0.9-2.5z"/>
				<path id="&lt;Path&gt;" class="s1" d="m1029.8 718.9c-0.1-0.1-0.2-0.2-0.3-0.4-0.4-0.5-1.3 0.4-1.4 0.7-0.3 0.6 0.1 1.1 0.7 0.7 0.2-0.1 0.5-0.2 0.7-0.4 0.1-0.1 0.4-0.3 0.3-0.6z"/>
				<path id="&lt;Path&gt;" class="s1" d="m1038.5 733.3q-0.3 0.1-0.5 0.2-0.1-0.1-0.1-0.1c-0.4-0.7-1.2 0.3-1.2 0.7 0 0.2 0.2 0.7 0.2 0.7-0.1 0.3 0.1 0.4 0.3 0.5q0.1 0.1 0.3 0.2c1.4 0.5 2.6-2.5 1-2.2z"/>
				<path id="&lt;Path&gt;" class="s1" d="m1007.7 725.6q-0.1 0-0.2-0.1c-1-0.3-2.1 0.7-2.5 1.6-0.4 0.9-0.1 1.9 1 1.6q0.1 0 0.2-0.1c0.8-0.2 1.5-0.8 1.8-1.5 0.2-0.4 0.4-1.3-0.3-1.5z"/>
				<path id="&lt;Path&gt;" class="s1" d="m1015.2 735.4c0-0.2-0.3-0.3-0.5-0.3q-0.3-0.3-0.7-0.3c-0.5 0.1-1.8 1.2-0.9 1.6q0 0 0 0 0 0.4-0.1 0.8c0 0.7 0.8 0.6 1.2 0.4 0.7-0.3 1.3-1 1.2-1.8q-0.1-0.2-0.2-0.4z"/>
				<path id="&lt;Path&gt;" class="s1" d="m1013.9 729.4q0.1 0.4 0.1 0.7c0.2 0.8 1.5-0.3 1.6-0.8q0.1-0.3 0.1-0.7c0-1.1-1.8 0-1.8 0.8z"/>
				<path id="&lt;Path&gt;" class="s1" d="m1042.9 749.7c-1.7 0-3.3 1.4-4 2.9-0.5 1.1-0.5 3 1.2 3 1.7 0 3.3-1.5 4-3 0.6-1.1 0.5-2.9-1.2-2.9z"/>
				<path id="&lt;Path&gt;" class="s1" d="m1047.4 762c-0.3-0.6-0.8-0.6-1.4-0.4-0.4 0.1-1.5 1.2-0.7 1.5q0.1 0 0.1 0c-0.1 1.3 2.5 0.2 2-1.1z"/>
				<path id="&lt;Path&gt;" class="s1" d="m1035.6 754.9q-0.1-0.2-0.3-0.3c-0.6-0.8-1.9 0.5-2.2 1-0.4 0.9 0.3 1.7 1.2 1.2q0.3-0.2 0.5-0.4c0.4-0.2 1.1-1 0.8-1.5z"/>
				<path id="&lt;Path&gt;" class="s1" d="m1052.8 780.6q-0.3 0.1-0.5 0.2c-0.9 0.3-3.2 2.3-1.6 3.1q0.2 0.1 0.5 0.2c1.1 0.3 2.3-0.7 2.8-1.7 0.5-1 0.1-2-1.2-1.8z"/>
				<path id="&lt;Path&gt;" class="s1" d="m1046.1 776.6c-0.3-0.8-1.3-0.4-1.7-0.1-0.6 0.4-1.3 1.3-1 2 0.3 0.7 0.9 0.3 1.4 0.3 0.5 0.1 1.2-0.6 1.1-1.1 0.2-0.3 0.3-0.7 0.2-1.1z"/>
				<path id="&lt;Path&gt;" class="s2" d="m1139.1 558.6c-2 0-3.8 1.7-4.6 3.3-0.6 1.3-0.6 3.4 1.3 3.4 2 0 3.8-1.6 4.6-3.3 0.6-1.3 0.6-3.4-1.3-3.4z"/>
				<path id="&lt;Path&gt;" class="s2" d="m1140.3 570.5c-0.2-0.3-0.3-0.6-0.7-0.7q-0.3-0.1-0.6 0c0.4-0.1-0.2 0-0.3 0.1-0.7 0.2-1.5 0.9-1.5 1.7q-0.1 0.2-0.1 0.5c-0.4 1.1 0.8 1.5 1.6 1.1 0.7-0.4 2.1-1.7 1.6-2.7z"/>
				<path id="&lt;Path&gt;" class="s2" d="m1131.2 566.6c-0.8 0-1.8 1.6-0.8 1.6 0.7 0 1.7-1.6 0.8-1.6z"/>
				<path id="&lt;Path&gt;" class="s2" d="m1142.8 579.8c-2 0-4.9 4.5-2.2 4.5 2.1 0 4.9-4.5 2.2-4.5z"/>
				<path id="&lt;Path&gt;" class="s2" d="m1139.5 588.1c-0.5 0-1.2 1.1-0.5 1.1 0.5 0 1.2-1.1 0.5-1.1z"/>
				<path id="&lt;Path&gt;" class="s2" d="m1135.4 583.5c-0.7-0.6-1.5-0.5-2.1 0.2-0.7 0.8 0.2 1.1 0.9 1.2 0.3 0.1 0.7-0.3 0.7-0.6q0.1-0.1 0.1-0.1c0.2-0.1 0.7-0.5 0.4-0.7z"/>
				<path id="&lt;Path&gt;" class="s2" d="m1056.2 558.9c-1.2 0.6-3.6 3-2.1 4.4q0 0 0 0.1c0.6 0.6 1.6 0.3 2.2 0 1.1-0.5 2.1-1.6 2.4-2.8q0 0 0-0.1c0.5-1.7-1.1-2.3-2.5-1.6z"/>
				<path id="&lt;Path&gt;" class="s2" d="m1064.9 550.5c-0.7-0.1-1.1-0.1-1.8 0-1.4 0.3-2.8 1.7-3.4 2.9-0.4 1-0.7 2.5 0.5 3 1.2 0.9 3.3-0.4 4.1-1.2 0.7-0.7 1.2-1.5 1.4-2.4 0.2-0.8 0.1-2-0.8-2.3z"/>
				<path id="&lt;Path&gt;" class="s2" d="m1069.6 542.3c-1.4 0-3.2 2.9-1.4 2.9 1.3 0 3.1-2.9 1.4-2.9z"/>
				<path id="&lt;Path&gt;" class="s2" d="m1078.4 544.6c-0.9-1.8-3.4 0.8-3.4 2q0 0.3 0.1 0.6c0.7 1.6 3.1-0.7 3.3-1.6 0.1-0.4 0.1-0.7 0-1z"/>
				<path id="&lt;Path&gt;" class="s2" d="m1073 553.7c-0.9 0-2.2 2-1 2 0.9 0 2.2-2 1-2z"/>
				<path id="&lt;Path&gt;" class="s2" d="m1061.8 590.9c-1.7-0.6-3.9 1.3-4.4 2.7-0.2 0.5-0.5 1.1-0.4 1.7 0.2 1.1 0.9 1.6 2.1 1.3 1.2-0.3 2.4-1.4 3-2.6 0.6-0.9 0.9-2.6-0.3-3.1z"/>
				<path id="&lt;Path&gt;" class="s2" d="m1102.4 585.4c-0.9 0-1.7 0.7-2.1 1.4-0.3 0.6-0.2 1.6 0.6 1.6 0.9 0 1.7-0.8 2-1.5 0.3-0.6 0.3-1.5-0.5-1.5z"/>
				<path id="&lt;Path&gt;" class="s2" d="m1100.1 591.1c-1.1 0-2.1 0.9-2.5 1.8-0.4 0.7-0.3 1.9 0.7 1.9 1.1 0 2.1-0.9 2.5-1.8 0.4-0.8 0.4-1.9-0.7-1.9z"/>
				<path id="&lt;Path&gt;" class="s2" d="m1092.4 587.6c-0.1-0.2-0.2-0.2-0.4-0.4-0.2-0.2-0.6-0.1-0.9 0-0.8 0.3-1.3 1-1.5 1.8-0.1 0.5 0.2 0.9 0.8 0.8 0.5-0.1 1-0.5 1.2-1 0.2-0.1 0.4-0.2 0.5-0.3 0.3-0.2 0.6-0.6 0.3-0.9z"/>
				<path id="&lt;Path&gt;" class="s2" d="m1093 632.5c-1.3 0-2.6 1.2-3.1 2.3-0.5 0.9-0.4 2.4 0.9 2.4 1.3 0 2.6-1.2 3.2-2.3 0.4-1 0.4-2.4-1-2.4z"/>
				<path id="&lt;Path&gt;" class="s2" d="m1088.2 627.8c-0.2-0.3-0.2-0.6-0.5-0.7-0.5-0.2-1 0-1.4 0.1-0.8 0.4-1.5 1.2-1.5 2.1 0 0.9 0.9 0.5 1.5 0q0.2 0 0.3 0c0.5-0.1 0.8-0.5 1.2-0.8 0.2-0.1 0.5-0.5 0.4-0.7z"/>
				<path id="&lt;Path&gt;" class="s2" d="m1097.6 626.1q-0.1 0.1-0.2 0.2c-0.3 0.2-1.1 0.9-0.6 1.3q0 0 0.1 0.1c0.5 0.9 1.7-0.2 2-0.8 0.5-1-0.5-1.3-1.3-0.8z"/>
				<path id="&lt;Path&gt;" class="s2" d="m1119.4 629c-1.5 0-3.5 3.2-1.5 3.2 1.4 0 3.5-3.2 1.5-3.2z"/>
				<path id="&lt;Path&gt;" class="s2" d="m1105.4 549.5c-1.4 0-3.4 3.1-1.5 3.1 1.4 0 3.5-3.1 1.5-3.1z"/>
				<path id="&lt;Path&gt;" class="s2" d="m996.3 662.6c-1.1 0-2.1 1-2.6 2-0.4 0.7-0.4 1.9 0.8 1.9 1.1 0 2.1-0.9 2.6-1.9 0.4-0.8 0.3-2-0.8-2z"/>
				<path id="&lt;Path&gt;" class="s2" d="m1003.1 660.1q-0.1 0-0.2-0.1c-1.4-0.4-2.9 1.5-2.7 2.8q0 0 0 0c0.1 0.2 0.2 0.4 0.4 0.6 1 0.6 2.4-0.7 2.8-1.6 0.2-0.6 0.4-1.5-0.3-1.7z"/>
				<path id="&lt;Path&gt;" class="s2" d="m990.9 658.9c-0.7 0-1.7 1.6-0.7 1.6 0.7 0 1.7-1.6 0.7-1.6z"/>
				<path id="&lt;Path&gt;" class="s2" d="m981.7 677.6c-0.4-0.3-1-0.1-1.6 0-1 0.2-2 1.2-2.4 2.1-0.3 0.7-0.6 1.9 0.4 2.2 0.5 0.1 1 0.3 1.5 0.1 1.1-0.4 2-1.1 2.6-2.2 0.4-0.8 0.4-1.8-0.5-2.2z"/>
				<path id="&lt;Path&gt;" class="s2" d="m984.3 689.5c-1.3 0-2.5 1.1-3.1 2.2-0.4 0.9-0.4 2.3 0.9 2.3 1.3 0 2.6-1.1 3.1-2.2 0.4-0.9 0.4-2.3-0.9-2.3z"/>
				<path id="&lt;Path&gt;" class="s2" d="m988 684.3c-0.1-0.2 0-0.3-0.1-0.4-0.2-0.6-1-0.3-1.3-0.1-0.4 0.3-1 1-0.7 1.6 0.2 0.7 1.2 0.1 1.5-0.2q0.1-0.1 0.2-0.2c0.2-0.2 0.5-0.5 0.4-0.7z"/>
				<path id="&lt;Path&gt;" class="s2" d="m1022.8 692.1c-1.4-0.1-3.4 1.7-3.4 3.2-0.2 0.7-0.2 1.3 0.6 1.7 1.5 0.9 3.4-1 4-2.2 0.6-1.3 0.3-2.6-1.2-2.7z"/>
				<path id="&lt;Path&gt;" class="s2" d="m1014.2 699.2c-0.4-0.4-1 0-1.3 0.3-0.2 0.3-0.4 0.5-0.6 0.8-0.3 0.8 0.4 1.2 1.1 0.7-0.3 0.3 0.1 0 0.2-0.1 0.2-0.1 0.7-0.5 0.6-0.9 0.1-0.2 0.2-0.6 0-0.8z"/>
				<path id="&lt;Path&gt;" class="s2" d="m1009.3 685.6c-1 0.3-2.1 1.4-2.1 2.5 0 0.2 0.1 0.4 0.2 0.6 0.3 0.6 0.7 0.3 1.2 0.6 0.8 0.5 2.1-1 1.8-1.8 0-0.1 0.1-0.5 0.2-0.6 0.3-0.9-0.5-1.5-1.3-1.3z"/>
				<path id="&lt;Path&gt;" class="s2" d="m1022.7 683.7q0-0.1 0-0.1 0-0.3-0.2-0.3c-0.3-0.1-1 0.4-1 0.8q0 0.1 0 0.2 0 0.1 0 0.1 0 0.2 0.1 0.4c0 0.7 1-0.1 1.1-0.6q0-0.2 0-0.4 0 0 0-0.1z"/>
				<path id="&lt;Path&gt;" class="s22" d="m1149.5 644.5l11.2-7.3"/>
				<path id="&lt;Path&gt;" class="s22" d="m1143.9 650.4h16.8"/>
				<path id="&lt;Path&gt;" class="s22" d="m1124.4 728.7l13.1-1.6"/>
				<path id="&lt;Path&gt;" class="s22" d="m1126.2 734.3l11.3 1.2"/>
				<path id="&lt;Path&gt;" class="s22" d="m1130.8 712.7l16.4-6.8"/>
				<path id="&lt;Path&gt;" class="s22" d="m1119.4 756.9l10.8 19.3"/>
				<path id="&lt;Path&gt;" class="s22" d="m1048.4 650.4l-12.9-15.4"/>
				<path id="&lt;Path&gt;" class="s22" d="m1050.2 658.9l-14.7-5.3"/>
				<path id="&lt;Path&gt;" class="s22" d="m1053.3 677.4h-8"/>
				<path id="&lt;Path&gt;" class="s22" d="m1038 663.5l8.2-4.9"/>
				<path id="&lt;Path&gt;" class="s22" d="m1035.5 703.5l7.3-12.2"/>
				<path id="&lt;Path&gt;" class="s22" d="m1038 705.9l6.3-2.4"/>
				<path id="&lt;Path&gt;" class="s22" d="m995.4 725.5l-10.7 1.6"/>
				<path id="&lt;Path&gt;" class="s22" d="m1001.1 729.3l-11.3 7.6"/>
				<path id="&lt;Path&gt;" class="s22" d="m1029.8 787l8.2-17.4"/>
				<path id="&lt;Path&gt;" class="s22" d="m1027.4 780.6l7.5-7.2"/>
				<path id="&lt;Path&gt;" class="s23" d="m1127.1 543.2l16.8-21.8"/>
				<path id="&lt;Path&gt;" class="s23" d="m1135.6 542.1l13.9-10.8"/>
				<path id="&lt;Path&gt;" class="s23" d="m1134.3 538.9l8.3-9.6"/>
				<path id="&lt;Path&gt;" class="s23" d="m1155.1 593.7l10.3-6.8"/>
				<path id="&lt;Path&gt;" class="s23" d="m1161.2 585.9l7.2-13.7"/>
				<path id="&lt;Path&gt;" class="s23" d="m1099.2 530.5v-24.3"/>
				<path id="&lt;Path&gt;" class="s23" d="m1103.1 526.5l5.6-14.4"/>
				<path id="&lt;Path&gt;" class="s23" d="m1039.1 596.7h-11.7"/>
				<path id="&lt;Path&gt;" class="s23" d="m1040.1 603.3l-12.1 2.5"/>
				<path id="&lt;Path&gt;" class="s23" d="m1062.6 535.8l-1.4-16.5"/>
				<path id="&lt;Path&gt;" class="s23" d="m1065.8 533.3l3.1-14"/>
				<path id="&lt;Path&gt;" class="s23" d="m1036.7 572.2l-9.3-6.9"/>
				<path id="&lt;Path&gt;" class="s23" d="m1015.4 658.6l1.9-14.1"/>
				<path id="&lt;Path&gt;" class="s23" d="m1015.4 658.6l6.7-7"/>
				<path id="&lt;Path&gt;" class="s23" d="m982.4 666.5l-8.8-15.3"/>
				<path id="&lt;Path&gt;" class="s23" d="m977.4 665.2l-7.8-5.5"/>
				<path id="&lt;Path&gt;" class="s23" d="m983.2 705.9l-14.7-1.2"/>
				<path id="&lt;Path&gt;" class="s23" d="m973.6 699.1l-8.6-3.8"/>
			</g>
			<g id="&lt;Group&gt;">
				<g id="&lt;Group&gt;">
					<path id="&lt;Path&gt;" class="s1" d="m305.8 899.1l15.8-0.1 50.5-0.2c5.2-6 8.3-13.7 8.3-22.3 0-10.4-4.9-19.8-12.4-25.9q0.1-2.1 0.1-4.2c0-7.5-1.7-14.6-4.6-21.1 7.2-8 11.6-18.6 11.5-30.3 0-15.5-7.9-29.2-19.9-37.2 0.7-2.5 1.1-5.1 1.1-7.8 0-14.7-12-26.5-26.6-26.4-3.4 0-6.6 0.7-9.6 1.8-7.1-8.1-17.5-13.2-29.2-13.1-21.3 0.1-38.5 17.5-38.4 38.8 0 3.1 0.4 6.2 1.2 9.2-18.1 8.8-30.6 27.5-30.5 49 0.1 6.1 1.1 11.9 3 17.4-13.9 10-22.9 26.4-22.8 44.8 0.1 10.2 2.9 19.8 7.8 28z"/>
				</g>
				<g id="&lt;Group&gt;">
					<path id="&lt;Path&gt;" class="s2" d="m321 737.4c-0.1 0-0.7 0.2-1 0.3-0.3 0.1-0.6 0.3-1 0.5-0.7 0.4-1.5 1.5-1.4 2.4-0.1 0.4-0.1 0.7 0.1 1.1 0.5 0.8 1.5 0.8 2.3 0.4 1.2-0.6 2.2-1.8 2.3-3.2 0-0.8-0.5-1.5-1.3-1.5z"/>
					<path id="&lt;Path&gt;" class="s2" d="m320 737.7q0.1-0.1 0.2-0.1c-0.5 0.1-0.4 0.1-0.2 0.1z"/>
				</g>
				<path id="&lt;Path&gt;" class="s2" d="m327.2 735.6c-0.9-0.1-1.7 0.8-2.2 1.4-0.5 0.6-0.4 1.3-0.6 1.9-0.1 0.4 0 0.7 0.4 0.7 0.5 0 0.9-0.3 1.1-0.7q-0.2 0.1 0.1 0 0.3-0.1 0.5-0.3-0.4 0.2 0.3-0.2 0.5-0.4 0.8-0.9c0.5-0.6 0.7-1.8-0.4-1.9z"/>
				<path id="&lt;Path&gt;" class="s2" d="m326.3 746.7q0.1-0.3 0.1-0.7c0-1.6-1.9-1.2-2.7-0.6-0.8 0.6-2.7 3-0.9 3.7 0.3 0.2 0.6 0.1 1 0.1 1.2-0.1 2.4-1.3 2.5-2.5z"/>
				<path id="&lt;Path&gt;" class="s2" d="m287.9 805.7q-0.1-0.2-0.4-0.3-0.1 0-0.2-0.1c-0.8-0.3-1.8 0.6-2.3 1.2q-0.1 0.1-0.2 0.2c-0.3 0.5-0.6 1.2-0.4 1.8 0.3 0.8 1.2 0.7 1.8 0.4q0.2-0.1 0.5-0.4 0 0.1 0 0.1c0.4-0.3 1-1 1.3-1.7 0.2-0.5 0.2-0.9-0.1-1.2z"/>
				<path id="&lt;Path&gt;" class="s2" d="m290.6 796.6c0.3 0-0.1-0.1-0.2-0.1-0.3-0.1-0.6 0.2-0.8 0.4-0.3 0.5-0.7 0.9-0.8 1.4 0 0.3 0 0.6 0.2 0.8q0 0 0 0.1c-0.2 0.5 0.1 1 0.7 0.6 0.7-0.6 1.6-1.6 1.5-2.6 0-0.3-0.2-0.6-0.6-0.6z"/>
				<path id="&lt;Path&gt;" class="s2" d="m288.9 789q0 0 0-0.1c-0.2-0.5-1 0.3-1.1 0.6q0 0 0 0c-0.4 0.4-0.7 0.9-0.6 1.5q0 0 0.1 0.1c0.1 0.4 0.4 0.5 0.7 0.3q0 0 0.1 0 0 0 0.1 0 0 0 0 0c0.6-0.2 1.1-0.7 1.2-1.3q0.1-0.1 0.1-0.3c0.1-0.5-0.2-0.8-0.6-0.8z"/>
				<path id="&lt;Path&gt;" class="s2" d="m299 788.7q-0.2 0.1-0.3 0.3c-0.2 0.4-0.3 0.7-0.1 1.1q0.1 0.1 0.2 0.3c2.1 3.2 3.7-7.1 0.2-1.7z"/>
				<path id="&lt;Path&gt;" class="s2" d="m297.4 799.1c-1.6 0.1-3.7 3.5-1.6 3.5 1.5 0 3.7-3.5 1.6-3.5z"/>
				<path id="&lt;Path&gt;" class="s2" d="m268.6 824.3c-1.4 0-2.7 1.3-3.3 2.4-0.4 1-0.4 2.5 1 2.5 1.4 0 2.7-1.2 3.3-2.4 0.4-1 0.4-2.5-1-2.5z"/>
				<path id="&lt;Path&gt;" class="s2" d="m267.6 814.7l-0.1 0.1c-0.6 0.4-2.1 2.2-0.7 2.7 1.1 0.5 2.4-1 2.7-2q0 0 0-0.1c0.4-1.3-1.2-1.4-1.9-0.7z"/>
				<path id="&lt;Path&gt;" class="s2" d="m259.5 823.6c-0.7 0-1.7 1.6-0.8 1.6 0.7 0 1.7-1.6 0.8-1.6z"/>
				<path id="&lt;Path&gt;" class="s2" d="m261.5 830.5c0-1-0.8-1.2-1.6-1.1-1.4 0.2-3.2 2-3 3.5 0.1 0.8 0.7 1.2 1.6 1 0.5-0.1 0.8-0.3 1.2-0.6 0.3-0.2 1.2-0.9 0.2-0.2 0.9-0.6 1.7-1.6 1.6-2.6z"/>
				<path id="&lt;Path&gt;" class="s2" d="m318.5 812.6c0-0.7-0.7-1-1.3-0.8-0.8 0.2-1.5 0.8-1.9 1.6q0 0.1 0 0.1c-0.3 0.7-0.3 1.4 0.4 1.7q0 0 0 0c0.6 0.6 1.6-0.3 2-0.9 0.1-0.1 0.2-0.2 0.3-0.3q0.5-0.6 0.5-1.4z"/>
				<g id="&lt;Group&gt;">
					<path id="&lt;Path&gt;" class="s2" d="m330.1 804.1c-1 0.2-2 1-2.5 1.7-0.5 0.7-0.9 1.7-0.5 2.5q0 0 0 0.1 0 0 0.1 0 0 0.1 0.1 0.2-0.1 0-0.1-0.1c0.1 0.2 0.2 0.3 0.3 0.4 0.5 0.5 1.3 0.4 1.9 0.3 1.5-0.3 2.9-2 3-3.5 0.1-1.4-1.2-1.8-2.3-1.6z"/>
					<path id="&lt;Path&gt;" class="s2" d="m327.1 808.3c-0.1-0.1 0 0.1 0.1 0.2q0 0 0-0.1-0.1 0-0.1-0.1z"/>
				</g>
				<path id="&lt;Path&gt;" class="s2" d="m346.3 834.5q-0.1-0.1-0.3-0.2c-0.7-0.2-1.5 0.5-1.9 1q0.1 0 0.1 0c-0.6 0.5-1.5 2.2-0.3 2.6q0.1 0.1 0.2 0.1c0.8 0.3 1.7-0.5 2.1-1.1q0 0 0 0c0.6-0.7 1.2-2 0.1-2.4z"/>
				<path id="&lt;Path&gt;" class="s2" d="m346.8 844.8c-0.1-0.6-1 0-1 0.4-0.1 0.5-0.2 1-0.2 1.6 0.1 0.1 0.1 0.2 0.2 0.3q0.1 0 0.2 0c0.2 0 0.4 0 0.5-0.2 0.5-0.6 0.4-1.2 0.3-2.1z"/>
				<path id="&lt;Path&gt;" class="s2" d="m351.4 841.3c-0.5-0.2-0.9 0.2-1.2 0.5q0 0 0.1 0c-0.3 0-1.1 0.9-0.5 1q-0.1 0.1-0.1 0.2c0.2 1 1.7-0.4 1.9-0.7 0.1-0.3 0.2-0.8-0.2-1z"/>
				<path id="&lt;Path&gt;" class="s2" d="m342.3 840.2c-1.3 0-2.4 1-2.9 2.1-0.4 0.8-0.4 2.2 0.8 2.2 1.3 0 2.4-1.1 2.9-2.2 0.4-0.8 0.4-2.1-0.8-2.1z"/>
				<path id="&lt;Path&gt;" class="s2" d="m356.4 857.2q0-0.1 0-0.1c-0.6-0.8-1.5-0.6-2.2-0.1q-0.2 0.1-0.3 0.2 0 0 0 0c-0.8 0.6-1.8 1.7-1 2.4q0 0 0 0c0.4 1 1.6 0.4 2.2 0q0.1 0 0.1 0c0.6-0.4 1.7-1.7 1.2-2.4z"/>
				<path id="&lt;Path&gt;" class="s2" d="m361 791.7c-0.2-0.2-0.4-0.2-0.7-0.2-0.7 0-1.7 0.6-2 0.9-0.6 0.6-1.5 2.2-0.3 2.7 1.3 0.5 2.6-1.1 3.1-2 0.2-0.4 0.3-1-0.1-1.4z"/>
				<path id="&lt;Path&gt;" class="s2" d="m357.7 784.2c-0.5-0.4-1.2-0.3-1.8 0-0.9 0.4-2.7 2.3-1.6 3.4q0.1 0.1 0.1 0.2c1.1 1 2.7-0.7 3.2-1.5q0-0.2 0.1-0.4c0.3-0.5 0.4-1.2 0-1.7z"/>
				<path id="&lt;Path&gt;" class="s2" d="m307.2 732.8q0.3-0.2 0.5-0.2c-0.9 0-2.1 1-2.2 2-0.1 0.5-0.1 0.9 0.3 1.3 0.7 0.8 2.1-0.1 2.6-0.6 0.3-0.4 0.7-0.8 0.8-1.4q0.4-1.4-2-1.1z"/>
				<path id="&lt;Path&gt;" class="s2" d="m280.7 831.5q-0.1 0-0.1 0c-1.1-0.4-2.2 0.3-2.9 1.1-0.4 0.4-1 1.3-1.1 2.1-0.3 1 0 1.9 1.4 1.7 1.6-0.3 3.5-2 3.4-3.7 0-0.5-0.2-1-0.7-1.2z"/>
				<path id="&lt;Path&gt;" class="s2" d="m246.2 839.2c-1.2-1.2-3.3 0.1-4.1 1-0.5 0.6-1 1.1-1.3 1.8-0.3 0.7-0.7 2 0.1 2.6q-0.1-0.2-0.2-0.4c0.5 1.1 1.5 0.9 2.5 0.5 1-0.5 1.9-1.3 2.6-2.2 0.6-0.8 1.3-2.4 0.4-3.3z"/>
				<path id="&lt;Path&gt;" class="s2" d="m348.5 761.8q-0.1-0.3-0.4-0.4c-0.2-0.1-0.9-0.3-0.4-0.1-1.2-0.4-2.3 0.8-2.8 1.7q-0.2 0.4-0.3 0.8c-0.1 0.4-0.2 1 0.2 1.3 1.4 1.1 3.1-0.5 3.7-1.7q0.2-0.2 0.2-0.5 0-0.2 0.1-0.4 0-0.4-0.3-0.7z"/>
			</g>
			<path id="&lt;Path&gt;" class="s12" d="m366.2 275.6c0.8-2.3 1.2-4.8 1.2-7.3 0-12.6-10.2-22.8-22.8-22.8-9.2 0-17 5.4-20.7 13.2-1.9-0.5-3.8-0.8-5.9-0.8-12.6 0-22.8 10.2-22.8 22.8 0 12.6 10.2 22.8 22.8 22.8h45.1c7.8 0 14.2-6.3 14.2-14.1 0-6.8-4.8-12.4-11.1-13.8z"/>
			<path id="&lt;Path&gt;" class="s12" d="m1123.2 91.2q0.7-1.9 0.7-4.1c0-7-5.7-12.7-12.7-12.7-5.2 0-9.6 3-11.6 7.4q-1.6-0.4-3.3-0.5c-7 0-12.7 5.7-12.7 12.8 0 7 5.7 12.7 12.7 12.7h25.2c4.3 0 7.9-3.5 7.9-7.9 0-3.8-2.7-6.9-6.2-7.7z"/>
			<path id="&lt;Path&gt;" class="s12" d="m291.1 171.6q0.1-0.5 0.1-1c0-12.9-10.5-23.4-23.4-23.4q-0.8 0-1.7 0.1c1.1-2.7 1.7-5.6 1.7-8.7 0-12.9-10.4-23.4-23.3-23.4-9.4 0-17.5 5.6-21.2 13.5-5.3-5.5-12.7-9-20.9-9-16 0-28.9 12.9-28.9 28.9 0 3.5 0.6 6.8 1.8 9.9-2.4-0.8-4.9-1.2-7.6-1.2-13.3 0-24.2 10.8-24.2 24.2 0 13.3 10.9 24.2 24.2 24.2h117.7c9.7 0 17.5-7.9 17.5-17.6 0-7.6-4.9-14.1-11.8-16.5z"/>
			<path id="&lt;Path&gt;" class="s12" d="m1031.7 142.4q0-0.4 0-0.8c0-10-8.1-18.1-18.1-18.1q-0.7 0.1-1.3 0.1c0.8-2.1 1.3-4.3 1.3-6.7 0-10-8.1-18.1-18.1-18.1-7.2 0-13.5 4.3-16.3 10.4-4.1-4.2-9.9-6.9-16.2-6.9-12.4 0-22.4 10-22.4 22.3 0 2.7 0.5 5.3 1.4 7.6-1.8-0.6-3.8-0.9-5.8-0.9-10.4 0-18.8 8.4-18.8 18.7 0 10.4 8.4 18.8 18.8 18.8h91c7.5 0 13.6-6.1 13.6-13.6 0-5.9-3.9-11-9.1-12.8z"/>
			<path id="&lt;Path&gt;" class="s12" d="m1140.3 166.9c0 4.8-3.9 8.7-8.7 8.7-4.9 0-8.8-3.9-8.8-8.7 0-4.8 3.9-8.7 8.8-8.7 4.8 0 8.7 3.9 8.7 8.7z"/>
			<path id="&lt;Path&gt;" class="s12" d="m136.4 243.5c0 9.3-7.5 16.8-16.8 16.8-9.3 0-16.8-7.5-16.8-16.8 0-9.3 7.5-16.8 16.8-16.8 9.3 0 16.8 7.5 16.8 16.8z"/>
			<path id="&lt;Path&gt;" class="s12" d="m1401.5 188.1c0 9.3-7.5 16.9-16.8 16.9-9.3 0-16.8-7.6-16.8-16.9 0-9.2 7.5-16.8 16.8-16.8 9.3 0 16.8 7.6 16.8 16.8z"/>
		</g>
	</g>
</svg>